<?xml version = "1.0" encoding = "utf-8" standalone = "no"?><!DOCTYPE svg PUBLIC "-//W3C//DTD SVG 1.1//EN" "http://www.w3.org/Graphics/SVG/1.1/DTD/svg11.dtd">
<svg preserveAspectRatio = "xMinYMin meet" width = "100%" height = "100%" fill = "none" viewBox = "0 0 560.000 420.000"  version = "1.1" xmlns = "http://www.w3.org/2000/svg" xmlns:xlink = "http://www.w3.org/1999/xlink">
  <desc>Matlab Figure Converted by FIG2SVG</desc>
  <g id = "topgroup">
  <rect x = "0" y = "0" width = "560.000" height = "420.000" fill = "#ffffff" stroke = "none" />
  <g id  = "ID000000">
</g>
  <g id  = "ID000001">
      <polygon fill = "#ffffff" fill-opacity = "1.000" stroke = "none" points = "72.800,372.133 506.800,372.133 506.800,31.500 72.800,31.500 "/>
      <polygon fill = "#ffffff" fill-opacity = "1.000" stroke = "none" points = "72.800,31.500 506.800,31.500 506.800,31.500 72.800,31.500 "/>
      <polygon fill = "#ffffff" fill-opacity = "1.000" stroke = "none" points = "72.800,372.133 72.800,372.133 72.800,31.500 72.800,31.500 "/>
    <g>
<g id = "ID000003" >
  <g transform = "translate(35.467,201.817)">
    <g transform = "rotate(-90.000)">
      <text x = "0.000" y = "-0.2em" font-family = "Helvetica" text-anchor = "middle" dominant-baseline = "auto" font-size = "11.000pt" fill = "#262626"><tspan>TEB</tspan></text>
    </g>
  </g>
</g>
<g id = "ID000004" >
  <g transform = "translate(289.800,395.775)">
    <g transform = "rotate(-0.000)">
      <text x = "0.000" y = "0.9em" font-family = "Helvetica" text-anchor = "middle" dominant-baseline = "auto" font-size = "11.000pt" fill = "#262626"><tspan>E<tspan style = "baseline-shift:sub;font-size:65%%">b</tspan>/N<tspan style = "baseline-shift:sub;font-size:65%%">0</tspan> (dB)</tspan></text>
    </g>
  </g>
</g>
<g id = "ID000005" >
  <g transform = "translate(289.800,28.753)">
    <g transform = "rotate(-0.000)">
      <text x = "0.000" y = "-0.2em" font-family = "Helvetica" text-anchor = "middle" dominant-baseline = "auto" font-size = "11.000pt" font-weight = "bold" fill = "#000000"><tspan>Graphe du TEB en fonction de E<tspan style = "baseline-shift:sub;font-size:65%%">b</tspan>/N<tspan style = "baseline-shift:sub;font-size:65%%">0</tspan></tspan></text>
    </g>
  </g>
</g>
<g id = "ID000006" clip-path = "url(#ID000002)" >
<g>
      <polygon fill = "none" stroke-linecap = "square" stroke-linejoin = "miter" stroke = "#00ff00" stroke-width = "3.000pt" stroke-opacity = "1.000" stroke-dasharray = "none" points = "68.982,40.969 72.800,46.369 76.618,40.969 72.800,35.569 68.982,40.969 "/>
      <polygon fill = "none" stroke-linecap = "square" stroke-linejoin = "miter" stroke = "#00ff00" stroke-width = "3.000pt" stroke-opacity = "1.000" stroke-dasharray = "none" points = "83.448,56.747 87.267,62.147 91.085,56.747 87.267,51.347 83.448,56.747 "/>
      <polygon fill = "none" stroke-linecap = "square" stroke-linejoin = "miter" stroke = "#00ff00" stroke-width = "3.000pt" stroke-opacity = "1.000" stroke-dasharray = "none" points = "97.915,59.786 101.733,65.186 105.552,59.786 101.733,54.386 97.915,59.786 "/>
      <polygon fill = "none" stroke-linecap = "square" stroke-linejoin = "miter" stroke = "#00ff00" stroke-width = "3.000pt" stroke-opacity = "1.000" stroke-dasharray = "none" points = "112.382,77.969 116.200,83.369 120.018,77.969 116.200,72.569 112.382,77.969 "/>
      <polygon fill = "none" stroke-linecap = "square" stroke-linejoin = "miter" stroke = "#00ff00" stroke-width = "3.000pt" stroke-opacity = "1.000" stroke-dasharray = "none" points = "126.848,78.116 130.667,83.516 134.485,78.116 130.667,72.716 126.848,78.116 "/>
      <polygon fill = "none" stroke-linecap = "square" stroke-linejoin = "miter" stroke = "#00ff00" stroke-width = "3.000pt" stroke-opacity = "1.000" stroke-dasharray = "none" points = "141.315,87.289 145.133,92.689 148.952,87.289 145.133,81.889 141.315,87.289 "/>
      <polygon fill = "none" stroke-linecap = "square" stroke-linejoin = "miter" stroke = "#00ff00" stroke-width = "3.000pt" stroke-opacity = "1.000" stroke-dasharray = "none" points = "155.782,91.180 159.600,96.580 163.418,91.180 159.600,85.780 155.782,91.180 "/>
      <polygon fill = "none" stroke-linecap = "square" stroke-linejoin = "miter" stroke = "#00ff00" stroke-width = "3.000pt" stroke-opacity = "1.000" stroke-dasharray = "none" points = "170.248,97.621 174.067,103.021 177.885,97.621 174.067,92.221 170.248,97.621 "/>
      <polygon fill = "none" stroke-linecap = "square" stroke-linejoin = "miter" stroke = "#00ff00" stroke-width = "3.000pt" stroke-opacity = "1.000" stroke-dasharray = "none" points = "184.715,110.627 188.533,116.027 192.352,110.627 188.533,105.227 184.715,110.627 "/>
      <polygon fill = "none" stroke-linecap = "square" stroke-linejoin = "miter" stroke = "#00ff00" stroke-width = "3.000pt" stroke-opacity = "1.000" stroke-dasharray = "none" points = "199.182,115.139 203.000,120.539 206.818,115.139 203.000,109.739 199.182,115.139 "/>
      <polygon fill = "none" stroke-linecap = "square" stroke-linejoin = "miter" stroke = "#00ff00" stroke-width = "3.000pt" stroke-opacity = "1.000" stroke-dasharray = "none" points = "213.648,120.456 217.467,125.856 221.285,120.456 217.467,115.056 213.648,120.456 "/>
      <polygon fill = "none" stroke-linecap = "square" stroke-linejoin = "miter" stroke = "#00ff00" stroke-width = "3.000pt" stroke-opacity = "1.000" stroke-dasharray = "none" points = "228.115,130.067 231.933,135.467 235.752,130.067 231.933,124.667 228.115,130.067 "/>
      <polygon fill = "none" stroke-linecap = "square" stroke-linejoin = "miter" stroke = "#00ff00" stroke-width = "3.000pt" stroke-opacity = "1.000" stroke-dasharray = "none" points = "242.582,140.041 246.400,145.441 250.218,140.041 246.400,134.641 242.582,140.041 "/>
      <polygon fill = "none" stroke-linecap = "square" stroke-linejoin = "miter" stroke = "#00ff00" stroke-width = "3.000pt" stroke-opacity = "1.000" stroke-dasharray = "none" points = "257.048,147.350 260.867,152.750 264.685,147.350 260.867,141.950 257.048,147.350 "/>
      <polygon fill = "none" stroke-linecap = "square" stroke-linejoin = "miter" stroke = "#00ff00" stroke-width = "3.000pt" stroke-opacity = "1.000" stroke-dasharray = "none" points = "271.515,163.768 275.333,169.168 279.152,163.768 275.333,158.368 271.515,163.768 "/>
      <polygon fill = "none" stroke-linecap = "square" stroke-linejoin = "miter" stroke = "#00ff00" stroke-width = "3.000pt" stroke-opacity = "1.000" stroke-dasharray = "none" points = "285.982,169.202 289.800,174.602 293.618,169.202 289.800,163.802 285.982,169.202 "/>
      <polygon fill = "none" stroke-linecap = "square" stroke-linejoin = "miter" stroke = "#00ff00" stroke-width = "3.000pt" stroke-opacity = "1.000" stroke-dasharray = "none" points = "300.448,181.837 304.267,187.237 308.085,181.837 304.267,176.437 300.448,181.837 "/>
      <polygon fill = "none" stroke-linecap = "square" stroke-linejoin = "miter" stroke = "#00ff00" stroke-width = "3.000pt" stroke-opacity = "1.000" stroke-dasharray = "none" points = "314.915,190.156 318.733,195.556 322.552,190.156 318.733,184.756 314.915,190.156 "/>
      <polygon fill = "none" stroke-linecap = "square" stroke-linejoin = "miter" stroke = "#00ff00" stroke-width = "3.000pt" stroke-opacity = "1.000" stroke-dasharray = "none" points = "329.382,204.235 333.200,209.635 337.018,204.235 333.200,198.835 329.382,204.235 "/>
      <polygon fill = "none" stroke-linecap = "square" stroke-linejoin = "miter" stroke = "#00ff00" stroke-width = "3.000pt" stroke-opacity = "1.000" stroke-dasharray = "none" points = "343.848,215.273 347.667,220.673 351.485,215.273 347.667,209.873 343.848,215.273 "/>
      <polygon fill = "none" stroke-linecap = "square" stroke-linejoin = "miter" stroke = "#00ff00" stroke-width = "3.000pt" stroke-opacity = "1.000" stroke-dasharray = "none" points = "358.315,221.517 362.133,226.917 365.952,221.517 362.133,216.117 358.315,221.517 "/>
      <polygon fill = "none" stroke-linecap = "square" stroke-linejoin = "miter" stroke = "#00ff00" stroke-width = "3.000pt" stroke-opacity = "1.000" stroke-dasharray = "none" points = "372.782,236.542 376.600,241.942 380.418,236.542 376.600,231.142 372.782,236.542 "/>
      <polygon fill = "none" stroke-linecap = "square" stroke-linejoin = "miter" stroke = "#00ff00" stroke-width = "3.000pt" stroke-opacity = "1.000" stroke-dasharray = "none" points = "387.248,255.692 391.067,261.092 394.885,255.692 391.067,250.292 387.248,255.692 "/>
      <polygon fill = "none" stroke-linecap = "square" stroke-linejoin = "miter" stroke = "#00ff00" stroke-width = "3.000pt" stroke-opacity = "1.000" stroke-dasharray = "none" points = "401.715,267.284 405.533,272.684 409.352,267.284 405.533,261.884 401.715,267.284 "/>
      <polygon fill = "none" stroke-linecap = "square" stroke-linejoin = "miter" stroke = "#00ff00" stroke-width = "3.000pt" stroke-opacity = "1.000" stroke-dasharray = "none" points = "416.182,277.463 420.000,282.863 423.818,277.463 420.000,272.063 416.182,277.463 "/>
      <polygon fill = "none" stroke-linecap = "square" stroke-linejoin = "miter" stroke = "#00ff00" stroke-width = "3.000pt" stroke-opacity = "1.000" stroke-dasharray = "none" points = "430.648,290.032 434.467,295.432 438.285,290.032 434.467,284.632 430.648,290.032 "/>
      <polygon fill = "none" stroke-linecap = "square" stroke-linejoin = "miter" stroke = "#00ff00" stroke-width = "3.000pt" stroke-opacity = "1.000" stroke-dasharray = "none" points = "445.115,308.629 448.933,314.029 452.752,308.629 448.933,303.229 445.115,308.629 "/>
      <polygon fill = "none" stroke-linecap = "square" stroke-linejoin = "miter" stroke = "#00ff00" stroke-width = "3.000pt" stroke-opacity = "1.000" stroke-dasharray = "none" points = "459.582,324.726 463.400,330.126 467.218,324.726 463.400,319.326 459.582,324.726 "/>
      <polygon fill = "none" stroke-linecap = "square" stroke-linejoin = "miter" stroke = "#00ff00" stroke-width = "3.000pt" stroke-opacity = "1.000" stroke-dasharray = "none" points = "474.048,341.512 477.867,346.912 481.685,341.512 477.867,336.112 474.048,341.512 "/>
      <polygon fill = "none" stroke-linecap = "square" stroke-linejoin = "miter" stroke = "#00ff00" stroke-width = "3.000pt" stroke-opacity = "1.000" stroke-dasharray = "none" points = "488.515,365.527 492.333,370.927 496.152,365.527 492.333,360.127 488.515,365.527 "/>
      <polygon fill = "none" stroke-linecap = "square" stroke-linejoin = "miter" stroke = "#00ff00" stroke-width = "3.000pt" stroke-opacity = "1.000" stroke-dasharray = "none" points = "502.982,369.709 506.800,375.109 510.618,369.709 506.800,364.309 502.982,369.709 "/>
</g>
</g>
<g id = "ID000007" clip-path = "url(#ID000002)" >
      <polyline fill = "none" stroke-linecap = "square" stroke-linejoin = "round" stroke = "#0000ff" stroke-width = "3.000pt" stroke-dasharray = "none" stroke-opacity = "1.000" points = "72.800,57.362 87.267,64.106 101.733,68.937 116.200,69.961 130.667,79.334 145.133,84.903 159.600,89.598 174.067,103.479 188.533,108.516 203.000,114.762 217.467,122.137 231.933,130.029 246.400,140.174 260.867,147.193 275.333,160.213 289.800,167.908 304.267,175.809 318.733,191.864 333.200,202.784 347.667,215.587 362.133,221.869 376.600,236.108 391.067,247.250 405.533,265.749 420.000,282.701 434.467,290.741 448.933,305.328 463.400,321.313 477.867,336.827 492.333,355.839 506.800,372.133 "/>
</g>
  <clipPath id = "ID000002">
    <rect x = "72.800" y = "31.500" width = "434.000" height = "340.633"/>
  </clipPath>
    </g>
    <g>
      <polyline fill = "none" stroke-linecap = "square" stroke-linejoin = "miter" stroke = "#262626" stroke-width = "0.500pt" stroke-dasharray = "none" stroke-opacity = "1.000" points = "145.133,372.133 145.133,367.793 "/>
      <polyline fill = "none" stroke-linecap = "square" stroke-linejoin = "miter" stroke = "#262626" stroke-width = "0.500pt" stroke-dasharray = "none" stroke-opacity = "1.000" points = "217.467,372.133 217.467,367.793 "/>
      <polyline fill = "none" stroke-linecap = "square" stroke-linejoin = "miter" stroke = "#262626" stroke-width = "0.500pt" stroke-dasharray = "none" stroke-opacity = "1.000" points = "289.800,372.133 289.800,367.793 "/>
      <polyline fill = "none" stroke-linecap = "square" stroke-linejoin = "miter" stroke = "#262626" stroke-width = "0.500pt" stroke-dasharray = "none" stroke-opacity = "1.000" points = "362.133,372.133 362.133,367.793 "/>
      <polyline fill = "none" stroke-linecap = "square" stroke-linejoin = "miter" stroke = "#262626" stroke-width = "0.500pt" stroke-dasharray = "none" stroke-opacity = "1.000" points = "434.467,372.133 434.467,367.793 "/>
      <polyline fill = "none" stroke-linecap = "square" stroke-linejoin = "miter" stroke = "#262626" stroke-width = "0.500pt" stroke-dasharray = "none" stroke-opacity = "1.000" points = "72.800,372.133 506.800,372.133 "/>
      <polyline fill = "none" stroke-linecap = "square" stroke-linejoin = "miter" stroke = "#262626" stroke-width = "0.500pt" stroke-dasharray = "none" stroke-opacity = "1.000" points = "145.133,31.500 145.133,35.840 "/>
      <polyline fill = "none" stroke-linecap = "square" stroke-linejoin = "miter" stroke = "#262626" stroke-width = "0.500pt" stroke-dasharray = "none" stroke-opacity = "1.000" points = "217.467,31.500 217.467,35.840 "/>
      <polyline fill = "none" stroke-linecap = "square" stroke-linejoin = "miter" stroke = "#262626" stroke-width = "0.500pt" stroke-dasharray = "none" stroke-opacity = "1.000" points = "289.800,31.500 289.800,35.840 "/>
      <polyline fill = "none" stroke-linecap = "square" stroke-linejoin = "miter" stroke = "#262626" stroke-width = "0.500pt" stroke-dasharray = "none" stroke-opacity = "1.000" points = "362.133,31.500 362.133,35.840 "/>
      <polyline fill = "none" stroke-linecap = "square" stroke-linejoin = "miter" stroke = "#262626" stroke-width = "0.500pt" stroke-dasharray = "none" stroke-opacity = "1.000" points = "434.467,31.500 434.467,35.840 "/>
      <polyline fill = "none" stroke-linecap = "square" stroke-linejoin = "miter" stroke = "#262626" stroke-width = "0.500pt" stroke-dasharray = "none" stroke-opacity = "1.000" points = "72.800,31.500 506.800,31.500 "/>
  <g transform = "translate(72.800,378.946)">
    <g transform = "rotate(-0.000)">
      <text x = "0.000" y = "0.9em" font-family = "Helvetica" text-anchor = "middle" dominant-baseline = "auto" font-size = "10.000pt" fill = "#262626"><tspan>0</tspan></text>
    </g>
  </g>
  <g transform = "translate(145.133,378.946)">
    <g transform = "rotate(-0.000)">
      <text x = "0.000" y = "0.9em" font-family = "Helvetica" text-anchor = "middle" dominant-baseline = "auto" font-size = "10.000pt" fill = "#262626"><tspan>1</tspan></text>
    </g>
  </g>
  <g transform = "translate(217.467,378.946)">
    <g transform = "rotate(-0.000)">
      <text x = "0.000" y = "0.9em" font-family = "Helvetica" text-anchor = "middle" dominant-baseline = "auto" font-size = "10.000pt" fill = "#262626"><tspan>2</tspan></text>
    </g>
  </g>
  <g transform = "translate(289.800,378.946)">
    <g transform = "rotate(-0.000)">
      <text x = "0.000" y = "0.9em" font-family = "Helvetica" text-anchor = "middle" dominant-baseline = "auto" font-size = "10.000pt" fill = "#262626"><tspan>3</tspan></text>
    </g>
  </g>
  <g transform = "translate(362.133,378.946)">
    <g transform = "rotate(-0.000)">
      <text x = "0.000" y = "0.9em" font-family = "Helvetica" text-anchor = "middle" dominant-baseline = "auto" font-size = "10.000pt" fill = "#262626"><tspan>4</tspan></text>
    </g>
  </g>
  <g transform = "translate(434.467,378.946)">
    <g transform = "rotate(-0.000)">
      <text x = "0.000" y = "0.9em" font-family = "Helvetica" text-anchor = "middle" dominant-baseline = "auto" font-size = "10.000pt" fill = "#262626"><tspan>5</tspan></text>
    </g>
  </g>
  <g transform = "translate(506.800,378.946)">
    <g transform = "rotate(-0.000)">
      <text x = "0.000" y = "0.9em" font-family = "Helvetica" text-anchor = "middle" dominant-baseline = "auto" font-size = "10.000pt" fill = "#262626"><tspan>6</tspan></text>
    </g>
  </g>
      <polyline fill = "none" stroke-linecap = "square" stroke-linejoin = "miter" stroke = "#262626" stroke-width = "0.500pt" stroke-dasharray = "none" stroke-opacity = "1.000" points = "72.800,246.615 77.140,246.615 "/>
      <polyline fill = "none" stroke-linecap = "square" stroke-linejoin = "miter" stroke = "#262626" stroke-width = "0.500pt" stroke-dasharray = "none" stroke-opacity = "1.000" points = "72.800,372.133 72.800,31.500 "/>
      <polyline fill = "none" stroke-linecap = "square" stroke-linejoin = "miter" stroke = "#262626" stroke-width = "0.500pt" stroke-dasharray = "none" stroke-opacity = "1.000" points = "506.800,246.615 502.460,246.615 "/>
      <polyline fill = "none" stroke-linecap = "square" stroke-linejoin = "miter" stroke = "#262626" stroke-width = "0.500pt" stroke-dasharray = "none" stroke-opacity = "1.000" points = "506.800,372.133 506.800,31.500 "/>
      <polyline fill = "none" stroke-linecap = "square" stroke-linejoin = "miter" stroke = "#262626" stroke-width = "0.500pt" stroke-dasharray = "none" stroke-opacity = "1.000" points = "72.800,359.094 74.970,359.094 "/>
      <polyline fill = "none" stroke-linecap = "square" stroke-linejoin = "miter" stroke = "#262626" stroke-width = "0.500pt" stroke-dasharray = "none" stroke-opacity = "1.000" points = "72.800,332.217 74.970,332.217 "/>
      <polyline fill = "none" stroke-linecap = "square" stroke-linejoin = "miter" stroke = "#262626" stroke-width = "0.500pt" stroke-dasharray = "none" stroke-opacity = "1.000" points = "72.800,311.371 74.970,311.371 "/>
      <polyline fill = "none" stroke-linecap = "square" stroke-linejoin = "miter" stroke = "#262626" stroke-width = "0.500pt" stroke-dasharray = "none" stroke-opacity = "1.000" points = "72.800,294.338 74.970,294.338 "/>
      <polyline fill = "none" stroke-linecap = "square" stroke-linejoin = "miter" stroke = "#262626" stroke-width = "0.500pt" stroke-dasharray = "none" stroke-opacity = "1.000" points = "72.800,279.936 74.970,279.936 "/>
      <polyline fill = "none" stroke-linecap = "square" stroke-linejoin = "miter" stroke = "#262626" stroke-width = "0.500pt" stroke-dasharray = "none" stroke-opacity = "1.000" points = "72.800,267.461 74.970,267.461 "/>
      <polyline fill = "none" stroke-linecap = "square" stroke-linejoin = "miter" stroke = "#262626" stroke-width = "0.500pt" stroke-dasharray = "none" stroke-opacity = "1.000" points = "72.800,256.458 74.970,256.458 "/>
      <polyline fill = "none" stroke-linecap = "square" stroke-linejoin = "miter" stroke = "#262626" stroke-width = "0.500pt" stroke-dasharray = "none" stroke-opacity = "1.000" points = "72.800,181.859 74.970,181.859 "/>
      <polyline fill = "none" stroke-linecap = "square" stroke-linejoin = "miter" stroke = "#262626" stroke-width = "0.500pt" stroke-dasharray = "none" stroke-opacity = "1.000" points = "72.800,143.979 74.970,143.979 "/>
      <polyline fill = "none" stroke-linecap = "square" stroke-linejoin = "miter" stroke = "#262626" stroke-width = "0.500pt" stroke-dasharray = "none" stroke-opacity = "1.000" points = "72.800,117.103 74.970,117.103 "/>
      <polyline fill = "none" stroke-linecap = "square" stroke-linejoin = "miter" stroke = "#262626" stroke-width = "0.500pt" stroke-dasharray = "none" stroke-opacity = "1.000" points = "72.800,96.256 74.970,96.256 "/>
      <polyline fill = "none" stroke-linecap = "square" stroke-linejoin = "miter" stroke = "#262626" stroke-width = "0.500pt" stroke-dasharray = "none" stroke-opacity = "1.000" points = "72.800,79.223 74.970,79.223 "/>
      <polyline fill = "none" stroke-linecap = "square" stroke-linejoin = "miter" stroke = "#262626" stroke-width = "0.500pt" stroke-dasharray = "none" stroke-opacity = "1.000" points = "72.800,64.822 74.970,64.822 "/>
      <polyline fill = "none" stroke-linecap = "square" stroke-linejoin = "miter" stroke = "#262626" stroke-width = "0.500pt" stroke-dasharray = "none" stroke-opacity = "1.000" points = "72.800,52.347 74.970,52.347 "/>
      <polyline fill = "none" stroke-linecap = "square" stroke-linejoin = "miter" stroke = "#262626" stroke-width = "0.500pt" stroke-dasharray = "none" stroke-opacity = "1.000" points = "72.800,41.343 74.970,41.343 "/>
      <polyline fill = "none" stroke-linecap = "square" stroke-linejoin = "miter" stroke = "#262626" stroke-width = "0.500pt" stroke-dasharray = "none" stroke-opacity = "1.000" points = "506.800,359.094 504.630,359.094 "/>
      <polyline fill = "none" stroke-linecap = "square" stroke-linejoin = "miter" stroke = "#262626" stroke-width = "0.500pt" stroke-dasharray = "none" stroke-opacity = "1.000" points = "506.800,332.217 504.630,332.217 "/>
      <polyline fill = "none" stroke-linecap = "square" stroke-linejoin = "miter" stroke = "#262626" stroke-width = "0.500pt" stroke-dasharray = "none" stroke-opacity = "1.000" points = "506.800,311.371 504.630,311.371 "/>
      <polyline fill = "none" stroke-linecap = "square" stroke-linejoin = "miter" stroke = "#262626" stroke-width = "0.500pt" stroke-dasharray = "none" stroke-opacity = "1.000" points = "506.800,294.338 504.630,294.338 "/>
      <polyline fill = "none" stroke-linecap = "square" stroke-linejoin = "miter" stroke = "#262626" stroke-width = "0.500pt" stroke-dasharray = "none" stroke-opacity = "1.000" points = "506.800,279.936 504.630,279.936 "/>
      <polyline fill = "none" stroke-linecap = "square" stroke-linejoin = "miter" stroke = "#262626" stroke-width = "0.500pt" stroke-dasharray = "none" stroke-opacity = "1.000" points = "506.800,267.461 504.630,267.461 "/>
      <polyline fill = "none" stroke-linecap = "square" stroke-linejoin = "miter" stroke = "#262626" stroke-width = "0.500pt" stroke-dasharray = "none" stroke-opacity = "1.000" points = "506.800,256.458 504.630,256.458 "/>
      <polyline fill = "none" stroke-linecap = "square" stroke-linejoin = "miter" stroke = "#262626" stroke-width = "0.500pt" stroke-dasharray = "none" stroke-opacity = "1.000" points = "506.800,181.859 504.630,181.859 "/>
      <polyline fill = "none" stroke-linecap = "square" stroke-linejoin = "miter" stroke = "#262626" stroke-width = "0.500pt" stroke-dasharray = "none" stroke-opacity = "1.000" points = "506.800,143.979 504.630,143.979 "/>
      <polyline fill = "none" stroke-linecap = "square" stroke-linejoin = "miter" stroke = "#262626" stroke-width = "0.500pt" stroke-dasharray = "none" stroke-opacity = "1.000" points = "506.800,117.103 504.630,117.103 "/>
      <polyline fill = "none" stroke-linecap = "square" stroke-linejoin = "miter" stroke = "#262626" stroke-width = "0.500pt" stroke-dasharray = "none" stroke-opacity = "1.000" points = "506.800,96.256 504.630,96.256 "/>
      <polyline fill = "none" stroke-linecap = "square" stroke-linejoin = "miter" stroke = "#262626" stroke-width = "0.500pt" stroke-dasharray = "none" stroke-opacity = "1.000" points = "506.800,79.223 504.630,79.223 "/>
      <polyline fill = "none" stroke-linecap = "square" stroke-linejoin = "miter" stroke = "#262626" stroke-width = "0.500pt" stroke-dasharray = "none" stroke-opacity = "1.000" points = "506.800,64.822 504.630,64.822 "/>
      <polyline fill = "none" stroke-linecap = "square" stroke-linejoin = "miter" stroke = "#262626" stroke-width = "0.500pt" stroke-dasharray = "none" stroke-opacity = "1.000" points = "506.800,52.347 504.630,52.347 "/>
      <polyline fill = "none" stroke-linecap = "square" stroke-linejoin = "miter" stroke = "#262626" stroke-width = "0.500pt" stroke-dasharray = "none" stroke-opacity = "1.000" points = "506.800,41.343 504.630,41.343 "/>
  <g transform = "translate(64.120,246.615)">
    <g transform = "rotate(-0.000)">
      <text x = "0.000" y = "0.3em" font-family = "Helvetica" text-anchor = "end" dominant-baseline = "auto" font-size = "10.000pt" fill = "#262626"><tspan>10<tspan style = "baseline-shift:super;font-size:65%%">-2</tspan></tspan></text>
    </g>
  </g>
  <g transform = "translate(64.120,31.500)">
    <g transform = "rotate(-0.000)">
      <text x = "0.000" y = "0.3em" font-family = "Helvetica" text-anchor = "end" dominant-baseline = "auto" font-size = "10.000pt" fill = "#262626"><tspan>10<tspan style = "baseline-shift:super;font-size:65%%">-1</tspan></tspan></text>
    </g>
  </g>
      <polyline fill = "none" stroke-linecap = "square" stroke-linejoin = "miter" stroke = "#262626" stroke-width = "0.500pt" stroke-dasharray = "none" stroke-opacity = "1.000" points = "72.800,372.133 72.800,372.133 "/>
    </g>
  </g>
  <g id  = "ID000008">
  <clipPath id = "ID000009">
    <rect x = "209.333" y = "41.667" width = "287.000" height = "34.500"/>
  </clipPath>
  <g id = "ID000010">
    <rect fill = "#ffffff" stroke-linecap = "square" stroke-linejoin = "miter" stroke = "#262626" stroke-width = "0.500pt" stroke-dasharray = "none" stroke-opacity = "1.000" x = "209.333" y = "41.667" width = "287.000" height = "34.500"/>
  </g>
<g id = "ID000011" clip-path = "url(#ID000009)" >
</g>
<g id = "ID000012" clip-path = "url(#ID000009)" >
      <polyline fill = "none" stroke-linecap = "square" stroke-linejoin = "round" stroke = "#0000ff" stroke-width = "3.000pt" stroke-dasharray = "none" stroke-opacity = "1.000" points = "213.333,66.667 253.333,66.667 "/>
</g>
<g id = "ID000013" clip-path = "url(#ID000009)" >
<g>
      <polygon fill = "none" stroke-linecap = "square" stroke-linejoin = "miter" stroke = "#00ff00" stroke-width = "3.000pt" stroke-opacity = "1.000" stroke-dasharray = "none" points = "229.515,51.167 233.333,56.567 237.152,51.167 233.333,45.767 229.515,51.167 "/>
</g>
</g>
<g id = "ID000014" clip-path = "url(#ID000009)" >
</g>
<g id = "ID000015" >
  <g transform = "translate(256.333,66.667)">
    <g transform = "rotate(-0.000)">
      <text x = "0.000" y = "0.3em" font-family = "Helvetica" text-anchor = "start" dominant-baseline = "auto" font-size = "9.000pt" fill = "#000000"><tspan>TEB avec la transposition de fr&#233;quence</tspan></text>
    </g>
  </g>
</g>
<g id = "ID000016" >
  <g transform = "translate(256.333,51.167)">
    <g transform = "rotate(-0.000)">
      <text x = "0.000" y = "0.3em" font-family = "Helvetica" text-anchor = "start" dominant-baseline = "auto" font-size = "9.000pt" fill = "#000000"><tspan>TEB avec le passe-bas &#233;quivalente</tspan></text>
    </g>
  </g>
</g>
  </g>
  <g id  = "ID000017">
</g>
  </g>
</svg>
