<?xml version = "1.0" encoding = "utf-8" standalone = "no"?><!DOCTYPE svg PUBLIC "-//W3C//DTD SVG 1.1//EN" "http://www.w3.org/Graphics/SVG/1.1/DTD/svg11.dtd">
<svg preserveAspectRatio = "xMinYMin meet" width = "100%" height = "100%" fill = "none" viewBox = "0 0 560.000 420.000"  version = "1.1" xmlns = "http://www.w3.org/2000/svg" xmlns:xlink = "http://www.w3.org/1999/xlink">
  <desc>Matlab Figure Converted by FIG2SVG</desc>
  <g id = "topgroup">
  <rect x = "0" y = "0" width = "560.000" height = "420.000" fill = "#ffffff" stroke = "none" />
  <g id  = "ID000000">
</g>
  <g id  = "ID000001">
      <polygon fill = "#ffffff" fill-opacity = "1.000" stroke = "none" points = "72.800,372.133 506.800,372.133 506.800,31.500 72.800,31.500 "/>
      <polygon fill = "#ffffff" fill-opacity = "1.000" stroke = "none" points = "72.800,31.500 506.800,31.500 506.800,31.500 72.800,31.500 "/>
      <polygon fill = "#ffffff" fill-opacity = "1.000" stroke = "none" points = "72.800,372.133 72.800,372.133 72.800,31.500 72.800,31.500 "/>
    <g>
<g id = "ID000003" >
  <g transform = "translate(35.467,201.817)">
    <g transform = "rotate(-90.000)">
      <text x = "0.000" y = "-0.2em" font-family = "Helvetica" text-anchor = "middle" dominant-baseline = "auto" font-size = "11.000pt" fill = "#262626"><tspan>TEB</tspan></text>
    </g>
  </g>
</g>
<g id = "ID000004" >
  <g transform = "translate(289.800,395.775)">
    <g transform = "rotate(-0.000)">
      <text x = "0.000" y = "0.9em" font-family = "Helvetica" text-anchor = "middle" dominant-baseline = "auto" font-size = "11.000pt" fill = "#262626"><tspan>E<tspan style = "baseline-shift:sub;font-size:65%%">b</tspan>/N<tspan style = "baseline-shift:sub;font-size:65%%">0</tspan> (dB)</tspan></text>
    </g>
  </g>
</g>
<g id = "ID000005" >
  <g transform = "translate(289.800,28.753)">
    <g transform = "rotate(-0.000)">
      <text x = "0.000" y = "-0.2em" font-family = "Helvetica" text-anchor = "middle" dominant-baseline = "auto" font-size = "11.000pt" font-weight = "bold" fill = "#000000"><tspan>Graphe du TEB en fonction de E<tspan style = "baseline-shift:sub;font-size:65%%">b</tspan>/N<tspan style = "baseline-shift:sub;font-size:65%%">0</tspan></tspan></text>
    </g>
  </g>
</g>
<g id = "ID000006" clip-path = "url(#ID000002)" >
<g>
      <polygon fill = "none" stroke-linecap = "square" stroke-linejoin = "miter" stroke = "#00ff00" stroke-width = "3.000pt" stroke-opacity = "1.000" stroke-dasharray = "none" points = "68.982,65.952 72.800,71.352 76.618,65.952 72.800,60.552 68.982,65.952 "/>
      <polygon fill = "none" stroke-linecap = "square" stroke-linejoin = "miter" stroke = "#00ff00" stroke-width = "3.000pt" stroke-opacity = "1.000" stroke-dasharray = "none" points = "83.448,60.094 87.267,65.494 91.085,60.094 87.267,54.694 83.448,60.094 "/>
      <polygon fill = "none" stroke-linecap = "square" stroke-linejoin = "miter" stroke = "#00ff00" stroke-width = "3.000pt" stroke-opacity = "1.000" stroke-dasharray = "none" points = "97.915,65.014 101.733,70.414 105.552,65.014 101.733,59.614 97.915,65.014 "/>
      <polygon fill = "none" stroke-linecap = "square" stroke-linejoin = "miter" stroke = "#00ff00" stroke-width = "3.000pt" stroke-opacity = "1.000" stroke-dasharray = "none" points = "112.382,68.370 116.200,73.770 120.018,68.370 116.200,62.970 112.382,68.370 "/>
      <polygon fill = "none" stroke-linecap = "square" stroke-linejoin = "miter" stroke = "#00ff00" stroke-width = "3.000pt" stroke-opacity = "1.000" stroke-dasharray = "none" points = "126.848,73.001 130.667,78.401 134.485,73.001 130.667,67.601 126.848,73.001 "/>
      <polygon fill = "none" stroke-linecap = "square" stroke-linejoin = "miter" stroke = "#00ff00" stroke-width = "3.000pt" stroke-opacity = "1.000" stroke-dasharray = "none" points = "141.315,88.729 145.133,94.129 148.952,88.729 145.133,83.329 141.315,88.729 "/>
      <polygon fill = "none" stroke-linecap = "square" stroke-linejoin = "miter" stroke = "#00ff00" stroke-width = "3.000pt" stroke-opacity = "1.000" stroke-dasharray = "none" points = "155.782,92.169 159.600,97.569 163.418,92.169 159.600,86.769 155.782,92.169 "/>
      <polygon fill = "none" stroke-linecap = "square" stroke-linejoin = "miter" stroke = "#00ff00" stroke-width = "3.000pt" stroke-opacity = "1.000" stroke-dasharray = "none" points = "170.248,99.126 174.067,104.526 177.885,99.126 174.067,93.726 170.248,99.126 "/>
      <polygon fill = "none" stroke-linecap = "square" stroke-linejoin = "miter" stroke = "#00ff00" stroke-width = "3.000pt" stroke-opacity = "1.000" stroke-dasharray = "none" points = "184.715,104.853 188.533,110.253 192.352,104.853 188.533,99.453 184.715,104.853 "/>
      <polygon fill = "none" stroke-linecap = "square" stroke-linejoin = "miter" stroke = "#00ff00" stroke-width = "3.000pt" stroke-opacity = "1.000" stroke-dasharray = "none" points = "199.182,113.813 203.000,119.213 206.818,113.813 203.000,108.413 199.182,113.813 "/>
      <polygon fill = "none" stroke-linecap = "square" stroke-linejoin = "miter" stroke = "#00ff00" stroke-width = "3.000pt" stroke-opacity = "1.000" stroke-dasharray = "none" points = "213.648,124.810 217.467,130.210 221.285,124.810 217.467,119.410 213.648,124.810 "/>
      <polygon fill = "none" stroke-linecap = "square" stroke-linejoin = "miter" stroke = "#00ff00" stroke-width = "3.000pt" stroke-opacity = "1.000" stroke-dasharray = "none" points = "228.115,129.225 231.933,134.625 235.752,129.225 231.933,123.825 228.115,129.225 "/>
      <polygon fill = "none" stroke-linecap = "square" stroke-linejoin = "miter" stroke = "#00ff00" stroke-width = "3.000pt" stroke-opacity = "1.000" stroke-dasharray = "none" points = "242.582,139.097 246.400,144.497 250.218,139.097 246.400,133.697 242.582,139.097 "/>
      <polygon fill = "none" stroke-linecap = "square" stroke-linejoin = "miter" stroke = "#00ff00" stroke-width = "3.000pt" stroke-opacity = "1.000" stroke-dasharray = "none" points = "257.048,145.951 260.867,151.351 264.685,145.951 260.867,140.551 257.048,145.951 "/>
      <polygon fill = "none" stroke-linecap = "square" stroke-linejoin = "miter" stroke = "#00ff00" stroke-width = "3.000pt" stroke-opacity = "1.000" stroke-dasharray = "none" points = "271.515,155.912 275.333,161.312 279.152,155.912 275.333,150.512 271.515,155.912 "/>
      <polygon fill = "none" stroke-linecap = "square" stroke-linejoin = "miter" stroke = "#00ff00" stroke-width = "3.000pt" stroke-opacity = "1.000" stroke-dasharray = "none" points = "285.982,166.447 289.800,171.847 293.618,166.447 289.800,161.047 285.982,166.447 "/>
      <polygon fill = "none" stroke-linecap = "square" stroke-linejoin = "miter" stroke = "#00ff00" stroke-width = "3.000pt" stroke-opacity = "1.000" stroke-dasharray = "none" points = "300.448,174.699 304.267,180.099 308.085,174.699 304.267,169.299 300.448,174.699 "/>
      <polygon fill = "none" stroke-linecap = "square" stroke-linejoin = "miter" stroke = "#00ff00" stroke-width = "3.000pt" stroke-opacity = "1.000" stroke-dasharray = "none" points = "314.915,193.708 318.733,199.108 322.552,193.708 318.733,188.308 314.915,193.708 "/>
      <polygon fill = "none" stroke-linecap = "square" stroke-linejoin = "miter" stroke = "#00ff00" stroke-width = "3.000pt" stroke-opacity = "1.000" stroke-dasharray = "none" points = "329.382,194.078 333.200,199.478 337.018,194.078 333.200,188.678 329.382,194.078 "/>
      <polygon fill = "none" stroke-linecap = "square" stroke-linejoin = "miter" stroke = "#00ff00" stroke-width = "3.000pt" stroke-opacity = "1.000" stroke-dasharray = "none" points = "343.848,211.265 347.667,216.665 351.485,211.265 347.667,205.865 343.848,211.265 "/>
      <polygon fill = "none" stroke-linecap = "square" stroke-linejoin = "miter" stroke = "#00ff00" stroke-width = "3.000pt" stroke-opacity = "1.000" stroke-dasharray = "none" points = "358.315,213.895 362.133,219.295 365.952,213.895 362.133,208.495 358.315,213.895 "/>
      <polygon fill = "none" stroke-linecap = "square" stroke-linejoin = "miter" stroke = "#00ff00" stroke-width = "3.000pt" stroke-opacity = "1.000" stroke-dasharray = "none" points = "372.782,227.701 376.600,233.101 380.418,227.701 376.600,222.301 372.782,227.701 "/>
      <polygon fill = "none" stroke-linecap = "square" stroke-linejoin = "miter" stroke = "#00ff00" stroke-width = "3.000pt" stroke-opacity = "1.000" stroke-dasharray = "none" points = "387.248,249.630 391.067,255.030 394.885,249.630 391.067,244.230 387.248,249.630 "/>
      <polygon fill = "none" stroke-linecap = "square" stroke-linejoin = "miter" stroke = "#00ff00" stroke-width = "3.000pt" stroke-opacity = "1.000" stroke-dasharray = "none" points = "401.715,262.281 405.533,267.681 409.352,262.281 405.533,256.881 401.715,262.281 "/>
      <polygon fill = "none" stroke-linecap = "square" stroke-linejoin = "miter" stroke = "#00ff00" stroke-width = "3.000pt" stroke-opacity = "1.000" stroke-dasharray = "none" points = "416.182,277.122 420.000,282.522 423.818,277.122 420.000,271.722 416.182,277.122 "/>
      <polygon fill = "none" stroke-linecap = "square" stroke-linejoin = "miter" stroke = "#00ff00" stroke-width = "3.000pt" stroke-opacity = "1.000" stroke-dasharray = "none" points = "430.648,283.065 434.467,288.465 438.285,283.065 434.467,277.665 430.648,283.065 "/>
      <polygon fill = "none" stroke-linecap = "square" stroke-linejoin = "miter" stroke = "#00ff00" stroke-width = "3.000pt" stroke-opacity = "1.000" stroke-dasharray = "none" points = "445.115,300.368 448.933,305.768 452.752,300.368 448.933,294.968 445.115,300.368 "/>
      <polygon fill = "none" stroke-linecap = "square" stroke-linejoin = "miter" stroke = "#00ff00" stroke-width = "3.000pt" stroke-opacity = "1.000" stroke-dasharray = "none" points = "459.582,328.306 463.400,333.706 467.218,328.306 463.400,322.906 459.582,328.306 "/>
      <polygon fill = "none" stroke-linecap = "square" stroke-linejoin = "miter" stroke = "#00ff00" stroke-width = "3.000pt" stroke-opacity = "1.000" stroke-dasharray = "none" points = "474.048,343.447 477.867,348.847 481.685,343.447 477.867,338.047 474.048,343.447 "/>
      <polygon fill = "none" stroke-linecap = "square" stroke-linejoin = "miter" stroke = "#00ff00" stroke-width = "3.000pt" stroke-opacity = "1.000" stroke-dasharray = "none" points = "488.515,352.131 492.333,357.531 496.152,352.131 492.333,346.731 488.515,352.131 "/>
      <polygon fill = "none" stroke-linecap = "square" stroke-linejoin = "miter" stroke = "#00ff00" stroke-width = "3.000pt" stroke-opacity = "1.000" stroke-dasharray = "none" points = "502.982,365.141 506.800,370.541 510.618,365.141 506.800,359.741 502.982,365.141 "/>
</g>
</g>
<g id = "ID000007" clip-path = "url(#ID000002)" >
      <polyline fill = "none" stroke-linecap = "square" stroke-linejoin = "round" stroke = "#0000ff" stroke-width = "3.000pt" stroke-dasharray = "none" stroke-opacity = "1.000" points = "72.800,50.585 87.267,53.837 101.733,70.683 116.200,72.141 130.667,73.769 145.133,81.333 159.600,89.652 174.067,98.082 188.533,106.812 203.000,111.520 217.467,118.685 231.933,132.991 246.400,137.105 260.867,148.095 275.333,156.880 289.800,165.789 304.267,173.704 318.733,185.648 333.200,195.139 347.667,211.059 362.133,222.185 376.600,230.706 391.067,250.827 405.533,264.599 420.000,271.847 434.467,290.456 448.933,300.132 463.400,317.414 477.867,337.125 492.333,354.544 506.800,372.133 "/>
</g>
  <clipPath id = "ID000002">
    <rect x = "72.800" y = "31.500" width = "434.000" height = "340.633"/>
  </clipPath>
    </g>
    <g>
      <polyline fill = "none" stroke-linecap = "square" stroke-linejoin = "miter" stroke = "#262626" stroke-width = "0.500pt" stroke-dasharray = "none" stroke-opacity = "1.000" points = "145.133,372.133 145.133,367.793 "/>
      <polyline fill = "none" stroke-linecap = "square" stroke-linejoin = "miter" stroke = "#262626" stroke-width = "0.500pt" stroke-dasharray = "none" stroke-opacity = "1.000" points = "217.467,372.133 217.467,367.793 "/>
      <polyline fill = "none" stroke-linecap = "square" stroke-linejoin = "miter" stroke = "#262626" stroke-width = "0.500pt" stroke-dasharray = "none" stroke-opacity = "1.000" points = "289.800,372.133 289.800,367.793 "/>
      <polyline fill = "none" stroke-linecap = "square" stroke-linejoin = "miter" stroke = "#262626" stroke-width = "0.500pt" stroke-dasharray = "none" stroke-opacity = "1.000" points = "362.133,372.133 362.133,367.793 "/>
      <polyline fill = "none" stroke-linecap = "square" stroke-linejoin = "miter" stroke = "#262626" stroke-width = "0.500pt" stroke-dasharray = "none" stroke-opacity = "1.000" points = "434.467,372.133 434.467,367.793 "/>
      <polyline fill = "none" stroke-linecap = "square" stroke-linejoin = "miter" stroke = "#262626" stroke-width = "0.500pt" stroke-dasharray = "none" stroke-opacity = "1.000" points = "72.800,372.133 506.800,372.133 "/>
      <polyline fill = "none" stroke-linecap = "square" stroke-linejoin = "miter" stroke = "#262626" stroke-width = "0.500pt" stroke-dasharray = "none" stroke-opacity = "1.000" points = "145.133,31.500 145.133,35.840 "/>
      <polyline fill = "none" stroke-linecap = "square" stroke-linejoin = "miter" stroke = "#262626" stroke-width = "0.500pt" stroke-dasharray = "none" stroke-opacity = "1.000" points = "217.467,31.500 217.467,35.840 "/>
      <polyline fill = "none" stroke-linecap = "square" stroke-linejoin = "miter" stroke = "#262626" stroke-width = "0.500pt" stroke-dasharray = "none" stroke-opacity = "1.000" points = "289.800,31.500 289.800,35.840 "/>
      <polyline fill = "none" stroke-linecap = "square" stroke-linejoin = "miter" stroke = "#262626" stroke-width = "0.500pt" stroke-dasharray = "none" stroke-opacity = "1.000" points = "362.133,31.500 362.133,35.840 "/>
      <polyline fill = "none" stroke-linecap = "square" stroke-linejoin = "miter" stroke = "#262626" stroke-width = "0.500pt" stroke-dasharray = "none" stroke-opacity = "1.000" points = "434.467,31.500 434.467,35.840 "/>
      <polyline fill = "none" stroke-linecap = "square" stroke-linejoin = "miter" stroke = "#262626" stroke-width = "0.500pt" stroke-dasharray = "none" stroke-opacity = "1.000" points = "72.800,31.500 506.800,31.500 "/>
  <g transform = "translate(72.800,378.946)">
    <g transform = "rotate(-0.000)">
      <text x = "0.000" y = "0.9em" font-family = "Helvetica" text-anchor = "middle" dominant-baseline = "auto" font-size = "10.000pt" fill = "#262626"><tspan>0</tspan></text>
    </g>
  </g>
  <g transform = "translate(145.133,378.946)">
    <g transform = "rotate(-0.000)">
      <text x = "0.000" y = "0.9em" font-family = "Helvetica" text-anchor = "middle" dominant-baseline = "auto" font-size = "10.000pt" fill = "#262626"><tspan>1</tspan></text>
    </g>
  </g>
  <g transform = "translate(217.467,378.946)">
    <g transform = "rotate(-0.000)">
      <text x = "0.000" y = "0.9em" font-family = "Helvetica" text-anchor = "middle" dominant-baseline = "auto" font-size = "10.000pt" fill = "#262626"><tspan>2</tspan></text>
    </g>
  </g>
  <g transform = "translate(289.800,378.946)">
    <g transform = "rotate(-0.000)">
      <text x = "0.000" y = "0.9em" font-family = "Helvetica" text-anchor = "middle" dominant-baseline = "auto" font-size = "10.000pt" fill = "#262626"><tspan>3</tspan></text>
    </g>
  </g>
  <g transform = "translate(362.133,378.946)">
    <g transform = "rotate(-0.000)">
      <text x = "0.000" y = "0.9em" font-family = "Helvetica" text-anchor = "middle" dominant-baseline = "auto" font-size = "10.000pt" fill = "#262626"><tspan>4</tspan></text>
    </g>
  </g>
  <g transform = "translate(434.467,378.946)">
    <g transform = "rotate(-0.000)">
      <text x = "0.000" y = "0.9em" font-family = "Helvetica" text-anchor = "middle" dominant-baseline = "auto" font-size = "10.000pt" fill = "#262626"><tspan>5</tspan></text>
    </g>
  </g>
  <g transform = "translate(506.800,378.946)">
    <g transform = "rotate(-0.000)">
      <text x = "0.000" y = "0.9em" font-family = "Helvetica" text-anchor = "middle" dominant-baseline = "auto" font-size = "10.000pt" fill = "#262626"><tspan>6</tspan></text>
    </g>
  </g>
      <polyline fill = "none" stroke-linecap = "square" stroke-linejoin = "miter" stroke = "#262626" stroke-width = "0.500pt" stroke-dasharray = "none" stroke-opacity = "1.000" points = "72.800,242.050 77.140,242.050 "/>
      <polyline fill = "none" stroke-linecap = "square" stroke-linejoin = "miter" stroke = "#262626" stroke-width = "0.500pt" stroke-dasharray = "none" stroke-opacity = "1.000" points = "72.800,372.133 72.800,31.500 "/>
      <polyline fill = "none" stroke-linecap = "square" stroke-linejoin = "miter" stroke = "#262626" stroke-width = "0.500pt" stroke-dasharray = "none" stroke-opacity = "1.000" points = "506.800,242.050 502.460,242.050 "/>
      <polyline fill = "none" stroke-linecap = "square" stroke-linejoin = "miter" stroke = "#262626" stroke-width = "0.500pt" stroke-dasharray = "none" stroke-opacity = "1.000" points = "506.800,372.133 506.800,31.500 "/>
      <polyline fill = "none" stroke-linecap = "square" stroke-linejoin = "miter" stroke = "#262626" stroke-width = "0.500pt" stroke-dasharray = "none" stroke-opacity = "1.000" points = "72.800,352.143 74.970,352.143 "/>
      <polyline fill = "none" stroke-linecap = "square" stroke-linejoin = "miter" stroke = "#262626" stroke-width = "0.500pt" stroke-dasharray = "none" stroke-opacity = "1.000" points = "72.800,325.837 74.970,325.837 "/>
      <polyline fill = "none" stroke-linecap = "square" stroke-linejoin = "miter" stroke = "#262626" stroke-width = "0.500pt" stroke-dasharray = "none" stroke-opacity = "1.000" points = "72.800,305.432 74.970,305.432 "/>
      <polyline fill = "none" stroke-linecap = "square" stroke-linejoin = "miter" stroke = "#262626" stroke-width = "0.500pt" stroke-dasharray = "none" stroke-opacity = "1.000" points = "72.800,288.761 74.970,288.761 "/>
      <polyline fill = "none" stroke-linecap = "square" stroke-linejoin = "miter" stroke = "#262626" stroke-width = "0.500pt" stroke-dasharray = "none" stroke-opacity = "1.000" points = "72.800,274.665 74.970,274.665 "/>
      <polyline fill = "none" stroke-linecap = "square" stroke-linejoin = "miter" stroke = "#262626" stroke-width = "0.500pt" stroke-dasharray = "none" stroke-opacity = "1.000" points = "72.800,262.455 74.970,262.455 "/>
      <polyline fill = "none" stroke-linecap = "square" stroke-linejoin = "miter" stroke = "#262626" stroke-width = "0.500pt" stroke-dasharray = "none" stroke-opacity = "1.000" points = "72.800,251.685 74.970,251.685 "/>
      <polyline fill = "none" stroke-linecap = "square" stroke-linejoin = "miter" stroke = "#262626" stroke-width = "0.500pt" stroke-dasharray = "none" stroke-opacity = "1.000" points = "72.800,178.668 74.970,178.668 "/>
      <polyline fill = "none" stroke-linecap = "square" stroke-linejoin = "miter" stroke = "#262626" stroke-width = "0.500pt" stroke-dasharray = "none" stroke-opacity = "1.000" points = "72.800,141.592 74.970,141.592 "/>
      <polyline fill = "none" stroke-linecap = "square" stroke-linejoin = "miter" stroke = "#262626" stroke-width = "0.500pt" stroke-dasharray = "none" stroke-opacity = "1.000" points = "72.800,115.286 74.970,115.286 "/>
      <polyline fill = "none" stroke-linecap = "square" stroke-linejoin = "miter" stroke = "#262626" stroke-width = "0.500pt" stroke-dasharray = "none" stroke-opacity = "1.000" points = "72.800,94.882 74.970,94.882 "/>
      <polyline fill = "none" stroke-linecap = "square" stroke-linejoin = "miter" stroke = "#262626" stroke-width = "0.500pt" stroke-dasharray = "none" stroke-opacity = "1.000" points = "72.800,78.210 74.970,78.210 "/>
      <polyline fill = "none" stroke-linecap = "square" stroke-linejoin = "miter" stroke = "#262626" stroke-width = "0.500pt" stroke-dasharray = "none" stroke-opacity = "1.000" points = "72.800,64.115 74.970,64.115 "/>
      <polyline fill = "none" stroke-linecap = "square" stroke-linejoin = "miter" stroke = "#262626" stroke-width = "0.500pt" stroke-dasharray = "none" stroke-opacity = "1.000" points = "72.800,51.904 74.970,51.904 "/>
      <polyline fill = "none" stroke-linecap = "square" stroke-linejoin = "miter" stroke = "#262626" stroke-width = "0.500pt" stroke-dasharray = "none" stroke-opacity = "1.000" points = "72.800,41.134 74.970,41.134 "/>
      <polyline fill = "none" stroke-linecap = "square" stroke-linejoin = "miter" stroke = "#262626" stroke-width = "0.500pt" stroke-dasharray = "none" stroke-opacity = "1.000" points = "506.800,352.143 504.630,352.143 "/>
      <polyline fill = "none" stroke-linecap = "square" stroke-linejoin = "miter" stroke = "#262626" stroke-width = "0.500pt" stroke-dasharray = "none" stroke-opacity = "1.000" points = "506.800,325.837 504.630,325.837 "/>
      <polyline fill = "none" stroke-linecap = "square" stroke-linejoin = "miter" stroke = "#262626" stroke-width = "0.500pt" stroke-dasharray = "none" stroke-opacity = "1.000" points = "506.800,305.432 504.630,305.432 "/>
      <polyline fill = "none" stroke-linecap = "square" stroke-linejoin = "miter" stroke = "#262626" stroke-width = "0.500pt" stroke-dasharray = "none" stroke-opacity = "1.000" points = "506.800,288.761 504.630,288.761 "/>
      <polyline fill = "none" stroke-linecap = "square" stroke-linejoin = "miter" stroke = "#262626" stroke-width = "0.500pt" stroke-dasharray = "none" stroke-opacity = "1.000" points = "506.800,274.665 504.630,274.665 "/>
      <polyline fill = "none" stroke-linecap = "square" stroke-linejoin = "miter" stroke = "#262626" stroke-width = "0.500pt" stroke-dasharray = "none" stroke-opacity = "1.000" points = "506.800,262.455 504.630,262.455 "/>
      <polyline fill = "none" stroke-linecap = "square" stroke-linejoin = "miter" stroke = "#262626" stroke-width = "0.500pt" stroke-dasharray = "none" stroke-opacity = "1.000" points = "506.800,251.685 504.630,251.685 "/>
      <polyline fill = "none" stroke-linecap = "square" stroke-linejoin = "miter" stroke = "#262626" stroke-width = "0.500pt" stroke-dasharray = "none" stroke-opacity = "1.000" points = "506.800,178.668 504.630,178.668 "/>
      <polyline fill = "none" stroke-linecap = "square" stroke-linejoin = "miter" stroke = "#262626" stroke-width = "0.500pt" stroke-dasharray = "none" stroke-opacity = "1.000" points = "506.800,141.592 504.630,141.592 "/>
      <polyline fill = "none" stroke-linecap = "square" stroke-linejoin = "miter" stroke = "#262626" stroke-width = "0.500pt" stroke-dasharray = "none" stroke-opacity = "1.000" points = "506.800,115.286 504.630,115.286 "/>
      <polyline fill = "none" stroke-linecap = "square" stroke-linejoin = "miter" stroke = "#262626" stroke-width = "0.500pt" stroke-dasharray = "none" stroke-opacity = "1.000" points = "506.800,94.882 504.630,94.882 "/>
      <polyline fill = "none" stroke-linecap = "square" stroke-linejoin = "miter" stroke = "#262626" stroke-width = "0.500pt" stroke-dasharray = "none" stroke-opacity = "1.000" points = "506.800,78.210 504.630,78.210 "/>
      <polyline fill = "none" stroke-linecap = "square" stroke-linejoin = "miter" stroke = "#262626" stroke-width = "0.500pt" stroke-dasharray = "none" stroke-opacity = "1.000" points = "506.800,64.115 504.630,64.115 "/>
      <polyline fill = "none" stroke-linecap = "square" stroke-linejoin = "miter" stroke = "#262626" stroke-width = "0.500pt" stroke-dasharray = "none" stroke-opacity = "1.000" points = "506.800,51.904 504.630,51.904 "/>
      <polyline fill = "none" stroke-linecap = "square" stroke-linejoin = "miter" stroke = "#262626" stroke-width = "0.500pt" stroke-dasharray = "none" stroke-opacity = "1.000" points = "506.800,41.134 504.630,41.134 "/>
  <g transform = "translate(64.120,242.050)">
    <g transform = "rotate(-0.000)">
      <text x = "0.000" y = "0.3em" font-family = "Helvetica" text-anchor = "end" dominant-baseline = "auto" font-size = "10.000pt" fill = "#262626"><tspan>10<tspan style = "baseline-shift:super;font-size:65%%">-2</tspan></tspan></text>
    </g>
  </g>
  <g transform = "translate(64.120,31.500)">
    <g transform = "rotate(-0.000)">
      <text x = "0.000" y = "0.3em" font-family = "Helvetica" text-anchor = "end" dominant-baseline = "auto" font-size = "10.000pt" fill = "#262626"><tspan>10<tspan style = "baseline-shift:super;font-size:65%%">-1</tspan></tspan></text>
    </g>
  </g>
      <polyline fill = "none" stroke-linecap = "square" stroke-linejoin = "miter" stroke = "#262626" stroke-width = "0.500pt" stroke-dasharray = "none" stroke-opacity = "1.000" points = "72.800,372.133 72.800,372.133 "/>
    </g>
  </g>
  <g id  = "ID000008">
  <clipPath id = "ID000009">
    <rect x = "209.333" y = "41.667" width = "287.000" height = "34.500"/>
  </clipPath>
  <g id = "ID000010">
    <rect fill = "#ffffff" stroke-linecap = "square" stroke-linejoin = "miter" stroke = "#262626" stroke-width = "0.500pt" stroke-dasharray = "none" stroke-opacity = "1.000" x = "209.333" y = "41.667" width = "287.000" height = "34.500"/>
  </g>
<g id = "ID000011" clip-path = "url(#ID000009)" >
</g>
<g id = "ID000012" clip-path = "url(#ID000009)" >
      <polyline fill = "none" stroke-linecap = "square" stroke-linejoin = "round" stroke = "#0000ff" stroke-width = "3.000pt" stroke-dasharray = "none" stroke-opacity = "1.000" points = "213.333,66.667 253.333,66.667 "/>
</g>
<g id = "ID000013" clip-path = "url(#ID000009)" >
<g>
      <polygon fill = "none" stroke-linecap = "square" stroke-linejoin = "miter" stroke = "#00ff00" stroke-width = "3.000pt" stroke-opacity = "1.000" stroke-dasharray = "none" points = "229.515,51.167 233.333,56.567 237.152,51.167 233.333,45.767 229.515,51.167 "/>
</g>
</g>
<g id = "ID000014" clip-path = "url(#ID000009)" >
</g>
<g id = "ID000015" >
  <g transform = "translate(256.333,66.667)">
    <g transform = "rotate(-0.000)">
      <text x = "0.000" y = "0.3em" font-family = "Helvetica" text-anchor = "start" dominant-baseline = "auto" font-size = "9.000pt" fill = "#000000"><tspan>TEB avec la transposition de fr&#233;quence</tspan></text>
    </g>
  </g>
</g>
<g id = "ID000016" >
  <g transform = "translate(256.333,51.167)">
    <g transform = "rotate(-0.000)">
      <text x = "0.000" y = "0.3em" font-family = "Helvetica" text-anchor = "start" dominant-baseline = "auto" font-size = "9.000pt" fill = "#000000"><tspan>TEB avec le passe-bas &#233;quivalente</tspan></text>
    </g>
  </g>
</g>
  </g>
  <g id  = "ID000017">
</g>
  </g>
</svg>
