<?xml version = "1.0" encoding = "utf-8" standalone = "no"?><!DOCTYPE svg PUBLIC "-//W3C//DTD SVG 1.1//EN" "http://www.w3.org/Graphics/SVG/1.1/DTD/svg11.dtd">
<svg preserveAspectRatio = "xMinYMin meet" width = "100%" height = "100%" fill = "none" viewBox = "0 0 560.000 420.000"  version = "1.1" xmlns = "http://www.w3.org/2000/svg" xmlns:xlink = "http://www.w3.org/1999/xlink">
  <desc>Matlab Figure Converted by FIG2SVG</desc>
  <g id = "topgroup">
  <rect x = "0" y = "0" width = "560.000" height = "420.000" fill = "#ffffff" stroke = "none" />
  <g id  = "ID000000">
</g>
  <g id  = "ID000001">
      <polygon fill = "#ffffff" fill-opacity = "1.000" stroke = "none" points = "72.800,373.800 506.800,373.800 506.800,31.500 72.800,31.500 "/>
      <polygon fill = "#ffffff" fill-opacity = "1.000" stroke = "none" points = "72.800,31.500 506.800,31.500 506.800,31.500 72.800,31.500 "/>
      <polygon fill = "#ffffff" fill-opacity = "1.000" stroke = "none" points = "72.800,373.800 72.800,373.800 72.800,31.500 72.800,31.500 "/>
      <polyline fill = "none" stroke-linecap = "square" stroke-linejoin = "miter" stroke = "#262626" stroke-width = "0.500pt" stroke-dasharray = "none" stroke-opacity = "0.150" points = "145.133,373.800 145.133,31.500 "/>
      <polyline fill = "none" stroke-linecap = "square" stroke-linejoin = "miter" stroke = "#262626" stroke-width = "0.500pt" stroke-dasharray = "none" stroke-opacity = "0.150" points = "217.467,373.800 217.467,31.500 "/>
      <polyline fill = "none" stroke-linecap = "square" stroke-linejoin = "miter" stroke = "#262626" stroke-width = "0.500pt" stroke-dasharray = "none" stroke-opacity = "0.150" points = "289.800,373.800 289.800,31.500 "/>
      <polyline fill = "none" stroke-linecap = "square" stroke-linejoin = "miter" stroke = "#262626" stroke-width = "0.500pt" stroke-dasharray = "none" stroke-opacity = "0.150" points = "362.133,373.800 362.133,31.500 "/>
      <polyline fill = "none" stroke-linecap = "square" stroke-linejoin = "miter" stroke = "#262626" stroke-width = "0.500pt" stroke-dasharray = "none" stroke-opacity = "0.150" points = "434.467,373.800 434.467,31.500 "/>
      <polyline fill = "none" stroke-linecap = "square" stroke-linejoin = "miter" stroke = "#262626" stroke-width = "0.500pt" stroke-dasharray = "none" stroke-opacity = "0.150" points = "72.800,331.012 506.800,331.012 "/>
      <polyline fill = "none" stroke-linecap = "square" stroke-linejoin = "miter" stroke = "#262626" stroke-width = "0.500pt" stroke-dasharray = "none" stroke-opacity = "0.150" points = "72.800,288.225 506.800,288.225 "/>
      <polyline fill = "none" stroke-linecap = "square" stroke-linejoin = "miter" stroke = "#262626" stroke-width = "0.500pt" stroke-dasharray = "none" stroke-opacity = "0.150" points = "72.800,245.438 506.800,245.438 "/>
      <polyline fill = "none" stroke-linecap = "square" stroke-linejoin = "miter" stroke = "#262626" stroke-width = "0.500pt" stroke-dasharray = "none" stroke-opacity = "0.150" points = "72.800,202.650 506.800,202.650 "/>
      <polyline fill = "none" stroke-linecap = "square" stroke-linejoin = "miter" stroke = "#262626" stroke-width = "0.500pt" stroke-dasharray = "none" stroke-opacity = "0.150" points = "72.800,159.863 506.800,159.863 "/>
      <polyline fill = "none" stroke-linecap = "square" stroke-linejoin = "miter" stroke = "#262626" stroke-width = "0.500pt" stroke-dasharray = "none" stroke-opacity = "0.150" points = "72.800,117.075 506.800,117.075 "/>
      <polyline fill = "none" stroke-linecap = "square" stroke-linejoin = "miter" stroke = "#262626" stroke-width = "0.500pt" stroke-dasharray = "none" stroke-opacity = "0.150" points = "72.800,74.287 506.800,74.287 "/>
      <polyline fill = "none" stroke-linecap = "square" stroke-linejoin = "miter" stroke = "#262626" stroke-width = "0.500pt" stroke-dasharray = "none" stroke-opacity = "0.150" points = "145.133,31.500 145.133,31.500 "/>
      <polyline fill = "none" stroke-linecap = "square" stroke-linejoin = "miter" stroke = "#262626" stroke-width = "0.500pt" stroke-dasharray = "none" stroke-opacity = "0.150" points = "217.467,31.500 217.467,31.500 "/>
      <polyline fill = "none" stroke-linecap = "square" stroke-linejoin = "miter" stroke = "#262626" stroke-width = "0.500pt" stroke-dasharray = "none" stroke-opacity = "0.150" points = "289.800,31.500 289.800,31.500 "/>
      <polyline fill = "none" stroke-linecap = "square" stroke-linejoin = "miter" stroke = "#262626" stroke-width = "0.500pt" stroke-dasharray = "none" stroke-opacity = "0.150" points = "362.133,31.500 362.133,31.500 "/>
      <polyline fill = "none" stroke-linecap = "square" stroke-linejoin = "miter" stroke = "#262626" stroke-width = "0.500pt" stroke-dasharray = "none" stroke-opacity = "0.150" points = "434.467,31.500 434.467,31.500 "/>
      <polyline fill = "none" stroke-linecap = "square" stroke-linejoin = "miter" stroke = "#262626" stroke-width = "0.500pt" stroke-dasharray = "none" stroke-opacity = "0.150" points = "72.800,31.500 506.800,31.500 "/>
      <polyline fill = "none" stroke-linecap = "square" stroke-linejoin = "miter" stroke = "#262626" stroke-width = "0.500pt" stroke-dasharray = "none" stroke-opacity = "0.150" points = "72.800,331.012 72.800,331.012 "/>
      <polyline fill = "none" stroke-linecap = "square" stroke-linejoin = "miter" stroke = "#262626" stroke-width = "0.500pt" stroke-dasharray = "none" stroke-opacity = "0.150" points = "72.800,288.225 72.800,288.225 "/>
      <polyline fill = "none" stroke-linecap = "square" stroke-linejoin = "miter" stroke = "#262626" stroke-width = "0.500pt" stroke-dasharray = "none" stroke-opacity = "0.150" points = "72.800,245.438 72.800,245.438 "/>
      <polyline fill = "none" stroke-linecap = "square" stroke-linejoin = "miter" stroke = "#262626" stroke-width = "0.500pt" stroke-dasharray = "none" stroke-opacity = "0.150" points = "72.800,202.650 72.800,202.650 "/>
      <polyline fill = "none" stroke-linecap = "square" stroke-linejoin = "miter" stroke = "#262626" stroke-width = "0.500pt" stroke-dasharray = "none" stroke-opacity = "0.150" points = "72.800,159.863 72.800,159.863 "/>
      <polyline fill = "none" stroke-linecap = "square" stroke-linejoin = "miter" stroke = "#262626" stroke-width = "0.500pt" stroke-dasharray = "none" stroke-opacity = "0.150" points = "72.800,117.075 72.800,117.075 "/>
      <polyline fill = "none" stroke-linecap = "square" stroke-linejoin = "miter" stroke = "#262626" stroke-width = "0.500pt" stroke-dasharray = "none" stroke-opacity = "0.150" points = "72.800,74.287 72.800,74.287 "/>
      <polyline fill = "none" stroke-linecap = "square" stroke-linejoin = "miter" stroke = "#262626" stroke-width = "0.500pt" stroke-dasharray = "none" stroke-opacity = "0.150" points = "72.800,373.800 72.800,31.500 "/>
    <g>
<g id = "ID000003" >
  <g transform = "translate(32.467,202.650)">
    <g transform = "rotate(-90.000)">
      <text x = "0.000" y = "-0.2em" font-family = "Helvetica" text-anchor = "middle" dominant-baseline = "auto" font-size = "11.000pt" fill = "#262626"><tspan>S<tspan style = "baseline-shift:sub;font-size:65%%">x</tspan> (dB)</tspan></text>
    </g>
  </g>
</g>
<g id = "ID000004" >
  <g transform = "translate(289.800,397.418)">
    <g transform = "rotate(-0.000)">
      <text x = "0.000" y = "0.9em" font-family = "Helvetica" text-anchor = "middle" dominant-baseline = "auto" font-size = "11.000pt" fill = "#262626"><tspan>f (Hz)</tspan></text>
    </g>
  </g>
</g>
<g id = "ID000005" >
  <g transform = "translate(289.800,28.756)">
    <g transform = "rotate(-0.000)">
      <text x = "0.000" y = "-0.2em" font-family = "Helvetica" text-anchor = "middle" dominant-baseline = "auto" font-size = "11.000pt" font-weight = "bold" fill = "#000000"><tspan>Trac&#233; de la DSP de l'enveloppe complexe associ&#233;e au signal &#224; transmettre</tspan></text>
    </g>
  </g>
</g>
<g id = "ID000006" clip-path = "url(#ID000002)" >
      <polyline fill = "none" stroke-linecap = "square" stroke-linejoin = "round" stroke = "#ff0000" stroke-width = "0.500pt" stroke-dasharray = "none" stroke-opacity = "1.000" points = "72.800,345.801 73.012,348.433 73.224,332.729 73.436,347.949 73.648,338.294 73.860,340.225 74.071,334.916 74.283,347.898 74.495,331.499 74.707,335.757 74.919,342.437 75.131,340.765 75.343,351.802 75.555,336.349 75.767,363.737 75.979,343.823 76.191,346.863 76.403,362.413 76.614,356.069 76.826,353.012 77.038,363.839 77.250,356.921 77.462,356.848 77.674,362.008 77.886,346.810 78.098,349.710 78.310,354.036 78.522,346.325 78.734,349.589 78.946,343.106 79.157,345.393 79.369,339.421 79.581,336.509 79.793,344.633 80.005,352.783 80.217,351.086 80.429,327.348 80.641,331.136 80.853,325.157 81.065,328.608 81.277,324.804 81.488,326.193 81.700,334.355 81.912,329.914 82.124,328.649 82.336,341.275 82.548,339.857 82.760,323.546 82.972,340.162 83.184,344.678 83.396,334.222 83.608,333.273 83.820,341.647 84.031,342.273 84.243,353.570 84.455,348.847 84.667,347.795 84.879,357.793 85.091,358.049 85.303,352.695 85.515,367.422 85.727,356.572 85.939,352.416 86.151,366.521 86.363,355.383 86.574,351.631 86.786,361.682 86.998,351.750 87.210,352.057 87.422,353.260 87.634,333.905 87.846,345.956 88.058,348.157 88.270,336.226 88.482,348.337 88.694,344.214 88.905,337.184 89.117,334.924 89.329,324.664 89.541,332.166 89.753,345.533 89.965,333.326 90.177,343.813 90.389,343.669 90.601,323.459 90.813,327.151 91.025,352.008 91.237,342.166 91.448,340.656 91.660,346.891 91.872,326.051 92.084,337.164 92.296,352.795 92.508,345.588 92.720,346.779 92.932,345.953 93.144,342.575 93.356,353.369 93.568,350.382 93.779,350.171 93.991,363.474 94.203,360.498 94.415,351.541 94.627,366.730 94.839,356.166 95.051,353.593 95.263,356.319 95.475,354.573 95.687,347.720 95.899,356.227 96.111,341.894 96.322,356.936 96.534,346.962 96.746,337.265 96.958,339.735 97.170,332.292 97.382,339.090 97.594,330.337 97.806,322.076 98.018,325.601 98.230,345.252 98.442,334.060 98.654,333.303 98.865,345.435 99.077,324.276 99.289,328.098 99.501,342.928 99.713,326.883 99.925,365.543 100.137,341.616 100.349,339.947 100.561,318.777 100.773,330.896 100.985,333.367 101.196,338.007 101.408,351.128 101.620,338.228 101.832,360.848 102.044,365.436 102.256,339.459 102.468,360.449 102.680,363.842 102.892,347.905 103.104,367.346 103.316,353.988 103.528,353.994 103.739,367.037 103.951,353.644 104.163,350.639 104.375,361.114 104.587,349.735 104.799,342.866 105.011,346.607 105.223,352.382 105.435,350.216 105.647,343.432 105.859,331.361 106.071,336.209 106.282,348.340 106.494,323.850 106.706,327.602 106.918,341.637 107.130,330.861 107.342,335.923 107.554,332.283 107.766,329.812 107.978,345.527 108.190,336.629 108.402,314.469 108.613,322.879 108.825,323.655 109.037,314.728 109.249,329.284 109.461,327.824 109.673,339.282 109.885,338.047 110.097,327.404 110.309,349.082 110.521,354.839 110.733,337.656 110.945,348.150 111.156,356.604 111.368,351.662 111.580,360.338 111.792,354.110 112.004,351.728 112.216,365.916 112.428,348.983 112.640,357.147 112.852,359.188 113.064,336.388 113.276,353.074 113.488,358.915 113.699,338.732 113.911,341.817 114.123,346.051 114.335,333.766 114.547,340.719 114.759,348.146 114.971,342.620 115.183,346.669 115.395,337.798 115.607,321.458 115.819,324.601 116.030,342.791 116.242,323.992 116.454,321.660 116.666,322.168 116.878,315.981 117.090,326.686 117.302,323.089 117.514,330.198 117.726,335.441 117.938,332.594 118.150,335.599 118.362,350.432 118.573,333.726 118.785,342.459 118.997,338.044 119.209,337.281 119.421,349.067 119.633,343.808 119.845,350.296 120.057,353.496 120.269,351.376 120.481,350.362 120.693,364.047 120.904,356.871 121.116,345.838 121.328,360.065 121.540,356.714 121.752,344.855 121.964,346.911 122.176,339.682 122.388,342.722 122.600,343.854 122.812,344.656 123.024,342.439 123.236,337.868 123.447,337.251 123.659,331.374 123.871,325.919 124.083,328.706 124.295,335.640 124.507,337.087 124.719,322.000 124.931,326.770 125.143,348.995 125.355,326.662 125.567,323.572 125.779,336.007 125.990,326.351 126.202,331.256 126.414,334.044 126.626,326.693 126.838,325.597 127.050,332.422 127.262,329.940 127.474,344.477 127.686,334.962 127.898,342.282 128.110,361.746 128.321,337.491 128.533,348.098 128.745,357.388 128.957,345.460 129.169,356.877 129.381,359.153 129.593,347.566 129.805,360.403 130.017,351.699 130.229,344.638 130.441,351.565 130.653,347.768 130.864,349.333 131.076,342.192 131.288,350.015 131.500,337.025 131.712,332.449 131.924,320.954 132.136,336.409 132.348,332.213 132.560,330.785 132.772,327.443 132.984,327.328 133.196,332.000 133.407,335.196 133.619,317.749 133.831,336.604 134.043,327.746 134.255,313.821 134.467,313.649 134.679,331.916 134.891,331.659 135.103,317.706 135.315,330.202 135.527,335.442 135.738,333.812 135.950,331.409 136.162,339.828 136.374,339.317 136.586,345.415 136.798,329.075 137.010,363.111 137.222,345.402 137.434,335.727 137.646,355.026 137.858,355.275 138.070,346.668 138.281,358.419 138.493,351.538 138.705,347.330 138.917,354.408 139.129,349.712 139.341,341.712 139.553,358.711 139.765,340.764 139.977,328.729 140.189,340.915 140.401,329.272 140.613,337.059 140.824,325.031 141.036,311.268 141.248,332.413 141.460,332.911 141.672,312.005 141.884,323.284 142.096,325.085 142.308,322.940 142.520,329.754 142.732,329.229 142.944,321.359 143.155,321.051 143.367,327.478 143.579,315.546 143.791,321.993 144.003,322.327 144.215,313.988 144.427,327.250 144.639,334.240 144.851,325.157 145.063,323.674 145.275,319.029 145.487,335.920 145.698,338.197 145.910,336.831 146.122,353.265 146.334,360.243 146.546,339.808 146.758,354.090 146.970,356.257 147.182,340.978 147.394,365.262 147.606,340.184 147.818,344.506 148.029,337.116 148.241,342.868 148.453,338.784 148.665,341.892 148.877,347.859 149.089,323.067 149.301,329.742 149.513,326.475 149.725,324.127 149.937,336.572 150.149,327.946 150.361,319.659 150.572,322.840 150.784,328.271 150.996,319.562 151.208,317.131 151.420,304.963 151.632,321.594 151.844,329.358 152.056,317.047 152.268,339.805 152.480,328.359 152.692,316.749 152.904,319.334 153.115,329.086 153.327,316.285 153.539,318.279 153.751,330.805 153.963,330.642 154.175,352.505 154.387,338.117 154.599,337.342 154.811,342.606 155.023,344.585 155.235,352.305 155.446,349.052 155.658,341.375 155.870,351.581 156.082,358.281 156.294,326.339 156.506,352.058 156.718,342.382 156.930,330.264 157.142,331.777 157.354,327.053 157.566,342.432 157.778,326.221 157.989,318.862 158.201,322.874 158.413,310.668 158.625,318.427 158.837,321.130 159.049,321.744 159.261,312.949 159.473,336.018 159.685,326.643 159.897,314.966 160.109,327.429 160.321,312.553 160.532,321.595 160.744,315.775 160.956,308.880 161.168,316.617 161.380,332.818 161.592,324.163 161.804,315.052 162.016,319.661 162.228,341.316 162.440,320.916 162.652,332.738 162.863,330.611 163.075,349.755 163.287,335.055 163.499,341.744 163.711,340.190 163.923,348.633 164.135,340.364 164.347,346.764 164.559,348.778 164.771,342.724 164.983,336.462 165.195,340.947 165.406,341.573 165.618,332.820 165.830,323.561 166.042,326.315 166.254,324.913 166.466,310.791 166.678,316.073 166.890,334.563 167.102,320.575 167.314,315.933 167.526,306.204 167.738,305.054 167.949,299.094 168.161,302.172 168.373,310.470 168.585,323.000 168.797,342.964 169.009,309.175 169.221,310.511 169.433,314.968 169.645,305.385 169.857,313.863 170.069,314.872 170.280,316.365 170.492,310.869 170.704,313.231 170.916,312.807 171.128,326.905 171.340,326.432 171.552,319.479 171.764,343.237 171.976,341.410 172.188,324.427 172.400,345.335 172.612,340.003 172.823,342.209 173.035,350.461 173.247,331.585 173.459,335.096 173.671,341.555 173.883,329.461 174.095,339.251 174.307,333.785 174.519,317.133 174.731,326.598 174.943,311.727 175.154,316.896 175.366,309.461 175.578,307.083 175.790,305.040 176.002,299.986 176.214,287.694 176.426,296.341 176.638,293.234 176.850,297.122 177.062,301.068 177.274,299.401 177.486,298.357 177.697,304.941 177.909,299.480 178.121,287.106 178.333,299.728 178.545,298.611 178.757,308.534 178.969,309.676 179.181,307.215 179.393,300.418 179.605,310.638 179.817,319.204 180.029,321.531 180.240,325.937 180.452,346.004 180.664,323.851 180.876,336.782 181.088,331.267 181.300,336.047 181.512,347.087 181.724,332.758 181.936,333.735 182.148,334.070 182.360,323.169 182.571,339.994 182.783,318.106 182.995,314.430 183.207,306.360 183.419,314.966 183.631,300.517 183.843,313.660 184.055,291.270 184.267,292.610 184.479,296.889 184.691,288.887 184.903,295.255 185.114,291.595 185.326,285.559 185.538,298.100 185.750,294.068 185.962,286.627 186.174,279.033 186.386,275.824 186.598,284.920 186.810,293.706 187.022,299.940 187.234,291.048 187.446,297.573 187.657,292.784 187.869,317.339 188.081,303.585 188.293,302.869 188.505,319.240 188.717,323.273 188.929,324.108 189.141,317.767 189.353,329.429 189.565,315.322 189.777,330.513 189.988,344.359 190.200,328.233 190.412,326.087 190.624,333.250 190.836,321.817 191.048,310.257 191.260,321.712 191.472,310.242 191.684,296.788 191.896,300.752 192.108,292.403 192.320,298.530 192.531,292.146 192.743,290.432 192.955,296.213 193.167,285.569 193.379,283.085 193.591,293.019 193.803,301.516 194.015,290.284 194.227,291.113 194.439,270.896 194.651,272.485 194.863,281.454 195.074,273.791 195.286,282.205 195.498,291.582 195.710,302.952 195.922,282.563 196.134,274.836 196.346,293.196 196.558,299.871 196.770,294.892 196.982,296.233 197.194,315.289 197.405,309.203 197.617,314.335 197.829,310.467 198.041,315.916 198.253,323.692 198.465,333.630 198.677,324.003 198.889,312.086 199.101,335.275 199.313,305.430 199.525,313.587 199.737,309.632 199.948,292.986 200.160,289.989 200.372,283.487 200.584,285.022 200.796,277.307 201.008,291.077 201.220,281.708 201.432,275.514 201.644,267.374 201.856,266.549 202.068,264.553 202.279,270.187 202.491,282.469 202.703,281.663 202.915,271.442 203.127,272.299 203.339,276.035 203.551,280.992 203.763,262.958 203.975,258.188 204.187,263.003 204.399,273.639 204.611,272.818 204.822,273.539 205.034,286.257 205.246,277.021 205.458,288.929 205.670,281.049 205.882,295.868 206.094,309.774 206.306,308.444 206.518,303.703 206.730,312.146 206.942,336.835 207.154,298.232 207.365,291.370 207.577,301.879 207.789,281.081 208.001,278.640 208.213,281.191 208.425,283.995 208.637,267.423 208.849,247.019 209.061,241.355 209.273,241.933 209.485,239.804 209.696,240.473 209.908,245.436 210.120,251.388 210.332,256.757 210.544,242.032 210.756,245.073 210.968,238.911 211.180,230.590 211.392,231.566 211.604,237.046 211.816,248.440 212.028,241.282 212.239,245.434 212.451,255.470 212.663,256.639 212.875,249.660 213.087,263.205 213.299,261.886 213.511,266.580 213.723,288.559 213.935,300.637 214.147,293.878 214.359,290.412 214.571,272.565 214.782,246.182 214.994,244.534 215.206,238.578 215.418,224.937 215.630,223.222 215.842,218.011 216.054,204.919 216.266,208.557 216.478,205.916 216.690,183.915 216.902,171.695 217.113,165.079 217.325,157.685 217.537,152.463 217.749,156.674 217.961,158.585 218.173,155.184 218.385,152.212 218.597,147.191 218.809,144.472 219.021,143.707 219.233,141.138 219.445,144.883 219.656,147.309 219.868,140.913 220.080,140.487 220.292,139.132 220.504,134.089 220.716,125.336 220.928,119.956 221.140,122.852 221.352,121.524 221.564,112.343 221.776,109.772 221.988,115.026 222.199,118.875 222.411,113.428 222.623,106.260 222.835,112.580 223.047,123.416 223.259,123.996 223.471,122.321 223.683,122.635 223.895,110.099 224.107,93.273 224.319,98.504 224.530,106.813 224.742,89.819 224.954,87.665 225.166,89.927 225.378,83.750 225.590,79.987 225.802,87.448 226.014,92.492 226.226,90.926 226.438,93.579 226.650,94.957 226.862,95.503 227.073,88.399 227.285,79.881 227.497,82.409 227.709,86.021 227.921,84.221 228.133,74.836 228.345,72.022 228.557,80.844 228.769,81.952 228.981,79.203 229.193,89.990 229.404,95.099 229.616,80.378 229.828,77.406 230.040,80.345 230.252,74.203 230.464,68.901 230.676,68.708 230.888,76.890 231.100,81.548 231.312,76.741 231.524,78.669 231.736,83.591 231.947,80.401 232.159,71.967 232.371,62.972 232.583,67.769 232.795,82.253 233.007,73.495 233.219,67.754 233.431,75.654 233.643,85.647 233.855,75.748 234.067,63.934 234.279,62.828 234.490,69.424 234.702,74.627 234.914,71.577 235.126,59.483 235.338,58.511 235.550,66.560 235.762,57.761 235.974,58.087 236.186,69.652 236.398,71.707 236.610,65.786 236.821,58.472 237.033,59.166 237.245,70.302 237.457,79.113 237.669,68.089 237.881,59.842 238.093,65.219 238.305,72.875 238.517,57.371 238.729,52.182 238.941,60.711 239.153,68.245 239.364,70.380 239.576,64.659 239.788,62.033 240.000,66.277 240.212,60.183 240.424,51.521 240.636,51.202 240.848,55.579 241.060,61.002 241.272,56.820 241.484,59.387 241.696,73.169 241.907,66.593 242.119,55.118 242.331,57.370 242.543,54.824 242.755,45.242 242.967,47.398 243.179,55.928 243.391,56.277 243.603,51.651 243.815,48.402 244.027,55.969 244.238,61.486 244.450,60.281 244.662,57.692 244.874,53.806 245.086,54.333 245.298,47.777 245.510,39.313 245.722,42.137 245.934,46.953 246.146,43.068 246.358,44.746 246.570,60.143 246.781,49.196 246.993,43.969 247.205,60.219 247.417,69.605 247.629,68.415 247.841,68.035 248.053,65.743 248.265,53.299 248.477,45.612 248.689,51.667 248.901,54.857 249.113,48.667 249.324,41.885 249.536,43.261 249.748,50.224 249.960,48.837 250.172,44.199 250.384,47.956 250.596,54.690 250.808,56.924 251.020,55.315 251.232,54.254 251.444,57.646 251.655,51.642 251.867,46.313 252.079,45.924 252.291,43.285 252.503,43.929 252.715,45.415 252.927,44.613 253.139,44.975 253.351,38.046 253.563,31.557 253.775,33.438 253.987,35.528 254.198,38.568 254.410,47.384 254.622,65.163 254.834,56.411 255.046,50.647 255.258,56.493 255.470,56.061 255.682,50.563 255.894,49.570 256.106,44.239 256.318,45.641 256.529,45.349 256.741,49.029 256.953,63.177 257.165,73.634 257.377,67.023 257.589,53.597 257.801,49.137 258.013,53.600 258.225,53.589 258.437,55.858 258.649,61.894 258.861,53.060 259.072,52.500 259.284,62.915 259.496,50.176 259.708,43.915 259.920,44.167 260.132,51.334 260.344,56.431 260.556,58.212 260.768,64.163 260.980,56.525 261.192,50.565 261.404,46.084 261.615,43.002 261.827,39.474 262.039,36.655 262.251,40.889 262.463,60.431 262.675,70.319 262.887,56.095 263.099,54.506 263.311,51.644 263.523,49.062 263.735,48.294 263.946,54.217 264.158,59.313 264.370,59.331 264.582,40.974 264.794,31.500 265.006,45.070 265.218,58.569 265.430,47.498 265.642,43.467 265.854,46.306 266.066,61.067 266.278,60.067 266.489,49.538 266.701,49.217 266.913,43.790 267.125,40.440 267.337,51.165 267.549,62.461 267.761,60.808 267.973,61.777 268.185,62.354 268.397,65.915 268.609,69.677 268.821,50.878 269.032,46.328 269.244,50.331 269.456,48.407 269.668,52.615 269.880,64.338 270.092,53.109 270.304,52.768 270.516,48.295 270.728,44.989 270.940,51.695 271.152,56.909 271.363,61.692 271.575,58.782 271.787,51.019 271.999,50.609 272.211,51.771 272.423,57.009 272.635,58.246 272.847,55.258 273.059,50.901 273.271,44.895 273.483,44.429 273.695,54.279 273.906,64.358 274.118,60.433 274.330,49.258 274.542,49.148 274.754,51.706 274.966,41.324 275.178,46.668 275.390,67.222 275.602,62.660 275.814,47.985 276.026,45.271 276.238,45.468 276.449,37.939 276.661,45.363 276.873,56.050 277.085,59.066 277.297,70.098 277.509,63.139 277.721,52.516 277.933,48.949 278.145,50.079 278.357,54.084 278.569,53.880 278.780,49.074 278.992,44.793 279.204,40.296 279.416,46.754 279.628,51.570 279.840,48.962 280.052,49.752 280.264,49.935 280.476,47.111 280.688,45.461 280.900,48.887 281.112,44.271 281.323,41.346 281.535,39.872 281.747,36.623 281.959,43.847 282.171,55.129 282.383,61.267 282.595,64.674 282.807,55.864 283.019,50.564 283.231,51.999 283.443,48.777 283.654,47.988 283.866,50.210 284.078,50.562 284.290,45.393 284.502,39.177 284.714,35.401 284.926,34.580 285.138,40.916 285.350,52.531 285.562,46.335 285.774,42.749 285.986,51.328 286.197,47.970 286.409,43.895 286.621,40.295 286.833,36.219 287.045,44.889 287.257,58.652 287.469,51.697 287.681,40.636 287.893,40.739 288.105,48.757 288.317,59.760 288.529,53.475 288.740,50.895 288.952,57.697 289.164,62.482 289.376,60.276 289.588,69.064 289.800,76.998 290.012,69.064 290.224,60.276 290.436,62.482 290.648,57.697 290.860,50.895 291.071,53.475 291.283,59.760 291.495,48.757 291.707,40.739 291.919,40.636 292.131,51.697 292.343,58.652 292.555,44.889 292.767,36.219 292.979,40.295 293.191,43.895 293.403,47.970 293.614,51.328 293.826,42.749 294.038,46.335 294.250,52.531 294.462,40.916 294.674,34.580 294.886,35.401 295.098,39.177 295.310,45.393 295.522,50.562 295.734,50.210 295.946,47.988 296.157,48.777 296.369,51.999 296.581,50.564 296.793,55.864 297.005,64.674 297.217,61.267 297.429,55.129 297.641,43.847 297.853,36.623 298.065,39.872 298.277,41.346 298.488,44.271 298.700,48.887 298.912,45.461 299.124,47.111 299.336,49.935 299.548,49.752 299.760,48.962 299.972,51.570 300.184,46.754 300.396,40.296 300.608,44.793 300.820,49.074 301.031,53.880 301.243,54.084 301.455,50.079 301.667,48.949 301.879,52.516 302.091,63.139 302.303,70.098 302.515,59.066 302.727,56.050 302.939,45.363 303.151,37.939 303.363,45.468 303.574,45.271 303.786,47.985 303.998,62.660 304.210,67.222 304.422,46.668 304.634,41.324 304.846,51.706 305.058,49.148 305.270,49.258 305.482,60.433 305.694,64.358 305.905,54.279 306.117,44.429 306.329,44.895 306.541,50.901 306.753,55.258 306.965,58.246 307.177,57.009 307.389,51.771 307.601,50.609 307.813,51.019 308.025,58.782 308.237,61.692 308.448,56.909 308.660,51.695 308.872,44.989 309.084,48.295 309.296,52.768 309.508,53.109 309.720,64.338 309.932,52.615 310.144,48.407 310.356,50.331 310.568,46.328 310.779,50.878 310.991,69.677 311.203,65.915 311.415,62.354 311.627,61.777 311.839,60.808 312.051,62.461 312.263,51.165 312.475,40.440 312.687,43.790 312.899,49.217 313.111,49.538 313.322,60.067 313.534,61.067 313.746,46.306 313.958,43.467 314.170,47.498 314.382,58.569 314.594,45.070 314.806,31.500 315.018,40.974 315.230,59.331 315.442,59.313 315.654,54.217 315.865,48.294 316.077,49.062 316.289,51.644 316.501,54.506 316.713,56.095 316.925,70.319 317.137,60.431 317.349,40.889 317.561,36.655 317.773,39.474 317.985,43.002 318.196,46.084 318.408,50.565 318.620,56.525 318.832,64.163 319.044,58.212 319.256,56.431 319.468,51.334 319.680,44.167 319.892,43.915 320.104,50.176 320.316,62.915 320.528,52.500 320.739,53.060 320.951,61.894 321.163,55.858 321.375,53.589 321.587,53.600 321.799,49.137 322.011,53.597 322.223,67.023 322.435,73.634 322.647,63.177 322.859,49.029 323.071,45.349 323.282,45.641 323.494,44.239 323.706,49.570 323.918,50.563 324.130,56.061 324.342,56.493 324.554,50.647 324.766,56.411 324.978,65.163 325.190,47.384 325.402,38.568 325.613,35.528 325.825,33.438 326.037,31.557 326.249,38.046 326.461,44.975 326.673,44.613 326.885,45.415 327.097,43.929 327.309,43.285 327.521,45.924 327.733,46.313 327.945,51.642 328.156,57.646 328.368,54.254 328.580,55.315 328.792,56.924 329.004,54.690 329.216,47.956 329.428,44.199 329.640,48.837 329.852,50.224 330.064,43.261 330.276,41.885 330.487,48.667 330.699,54.857 330.911,51.667 331.123,45.612 331.335,53.299 331.547,65.743 331.759,68.035 331.971,68.415 332.183,69.605 332.395,60.219 332.607,43.969 332.819,49.196 333.030,60.143 333.242,44.746 333.454,43.068 333.666,46.953 333.878,42.137 334.090,39.313 334.302,47.777 334.514,54.333 334.726,53.806 334.938,57.692 335.150,60.281 335.362,61.486 335.573,55.969 335.785,48.402 335.997,51.651 336.209,56.277 336.421,55.928 336.633,47.398 336.845,45.242 337.057,54.824 337.269,57.370 337.481,55.118 337.693,66.593 337.904,73.169 338.116,59.387 338.328,56.820 338.540,61.002 338.752,55.579 338.964,51.202 339.176,51.521 339.388,60.183 339.600,66.277 339.812,62.033 340.024,64.659 340.236,70.380 340.447,68.245 340.659,60.711 340.871,52.182 341.083,57.371 341.295,72.875 341.507,65.219 341.719,59.842 341.931,68.089 342.143,79.113 342.355,70.302 342.567,59.166 342.779,58.472 342.990,65.786 343.202,71.707 343.414,69.652 343.626,58.087 343.838,57.761 344.050,66.560 344.262,58.511 344.474,59.483 344.686,71.577 344.898,74.627 345.110,69.424 345.321,62.828 345.533,63.934 345.745,75.748 345.957,85.647 346.169,75.654 346.381,67.754 346.593,73.495 346.805,82.253 347.017,67.769 347.229,62.972 347.441,71.967 347.653,80.401 347.864,83.591 348.076,78.669 348.288,76.741 348.500,81.548 348.712,76.890 348.924,68.708 349.136,68.901 349.348,74.203 349.560,80.345 349.772,77.406 349.984,80.378 350.196,95.099 350.407,89.990 350.619,79.203 350.831,81.952 351.043,80.844 351.255,72.022 351.467,74.836 351.679,84.221 351.891,86.021 352.103,82.409 352.315,79.881 352.527,88.399 352.738,95.503 352.950,94.957 353.162,93.579 353.374,90.926 353.586,92.492 353.798,87.448 354.010,79.987 354.222,83.750 354.434,89.927 354.646,87.665 354.858,89.819 355.070,106.813 355.281,98.504 355.493,93.273 355.705,110.099 355.917,122.635 356.129,122.321 356.341,123.996 356.553,123.416 356.765,112.580 356.977,106.260 357.189,113.428 357.401,118.875 357.613,115.026 357.824,109.772 358.036,112.343 358.248,121.524 358.460,122.852 358.672,119.956 358.884,125.336 359.096,134.089 359.308,139.132 359.520,140.487 359.732,140.913 359.944,147.309 360.155,144.883 360.367,141.138 360.579,143.707 360.791,144.472 361.003,147.191 361.215,152.212 361.427,155.184 361.639,158.585 361.851,156.674 362.063,152.463 362.275,157.685 362.487,165.079 362.698,171.695 362.910,183.915 363.122,205.916 363.334,208.557 363.546,204.919 363.758,218.011 363.970,223.222 364.182,224.937 364.394,238.578 364.606,244.534 364.818,246.182 365.029,272.565 365.241,290.412 365.453,293.878 365.665,300.637 365.877,288.559 366.089,266.580 366.301,261.886 366.513,263.205 366.725,249.660 366.937,256.639 367.149,255.470 367.361,245.434 367.572,241.282 367.784,248.440 367.996,237.046 368.208,231.566 368.420,230.590 368.632,238.911 368.844,245.073 369.056,242.032 369.268,256.757 369.480,251.388 369.692,245.436 369.904,240.473 370.115,239.804 370.327,241.933 370.539,241.355 370.751,247.019 370.963,267.423 371.175,283.995 371.387,281.191 371.599,278.640 371.811,281.081 372.023,301.879 372.235,291.370 372.446,298.232 372.658,336.835 372.870,312.146 373.082,303.703 373.294,308.444 373.506,309.774 373.718,295.868 373.930,281.049 374.142,288.929 374.354,277.021 374.566,286.257 374.778,273.539 374.989,272.818 375.201,273.639 375.413,263.003 375.625,258.188 375.837,262.958 376.049,280.992 376.261,276.035 376.473,272.299 376.685,271.442 376.897,281.663 377.109,282.469 377.321,270.187 377.532,264.553 377.744,266.549 377.956,267.374 378.168,275.514 378.380,281.708 378.592,291.077 378.804,277.307 379.016,285.022 379.228,283.487 379.440,289.989 379.652,292.986 379.863,309.632 380.075,313.587 380.287,305.430 380.499,335.275 380.711,312.086 380.923,324.003 381.135,333.630 381.347,323.692 381.559,315.916 381.771,310.467 381.983,314.335 382.195,309.203 382.406,315.289 382.618,296.233 382.830,294.892 383.042,299.871 383.254,293.196 383.466,274.836 383.678,282.563 383.890,302.952 384.102,291.582 384.314,282.205 384.526,273.791 384.738,281.454 384.949,272.485 385.161,270.896 385.373,291.113 385.585,290.284 385.797,301.516 386.009,293.019 386.221,283.085 386.433,285.569 386.645,296.213 386.857,290.432 387.069,292.146 387.280,298.530 387.492,292.403 387.704,300.752 387.916,296.788 388.128,310.242 388.340,321.712 388.552,310.257 388.764,321.817 388.976,333.250 389.188,326.087 389.400,328.233 389.612,344.359 389.823,330.513 390.035,315.322 390.247,329.429 390.459,317.767 390.671,324.108 390.883,323.273 391.095,319.240 391.307,302.869 391.519,303.585 391.731,317.339 391.943,292.784 392.154,297.573 392.366,291.048 392.578,299.940 392.790,293.706 393.002,284.920 393.214,275.824 393.426,279.033 393.638,286.627 393.850,294.068 394.062,298.100 394.274,285.559 394.486,291.595 394.697,295.255 394.909,288.887 395.121,296.889 395.333,292.610 395.545,291.270 395.757,313.660 395.969,300.517 396.181,314.966 396.393,306.360 396.605,314.430 396.817,318.106 397.029,339.994 397.240,323.169 397.452,334.070 397.664,333.735 397.876,332.758 398.088,347.087 398.300,336.047 398.512,331.267 398.724,336.782 398.936,323.851 399.148,346.004 399.360,325.937 399.571,321.531 399.783,319.204 399.995,310.638 400.207,300.418 400.419,307.215 400.631,309.676 400.843,308.534 401.055,298.611 401.267,299.728 401.479,287.106 401.691,299.480 401.903,304.941 402.114,298.357 402.326,299.401 402.538,301.068 402.750,297.122 402.962,293.234 403.174,296.341 403.386,287.694 403.598,299.986 403.810,305.040 404.022,307.083 404.234,309.461 404.446,316.896 404.657,311.727 404.869,326.598 405.081,317.133 405.293,333.785 405.505,339.251 405.717,329.461 405.929,341.555 406.141,335.096 406.353,331.585 406.565,350.461 406.777,342.209 406.988,340.003 407.200,345.335 407.412,324.427 407.624,341.410 407.836,343.237 408.048,319.479 408.260,326.432 408.472,326.905 408.684,312.807 408.896,313.231 409.108,310.869 409.320,316.365 409.531,314.872 409.743,313.863 409.955,305.385 410.167,314.968 410.379,310.511 410.591,309.175 410.803,342.964 411.015,323.000 411.227,310.470 411.439,302.172 411.651,299.094 411.863,305.054 412.074,306.204 412.286,315.933 412.498,320.575 412.710,334.563 412.922,316.073 413.134,310.791 413.346,324.913 413.558,326.315 413.770,323.561 413.982,332.820 414.194,341.573 414.405,340.947 414.617,336.462 414.829,342.724 415.041,348.778 415.253,346.764 415.465,340.364 415.677,348.633 415.889,340.190 416.101,341.744 416.313,335.055 416.525,349.755 416.737,330.611 416.948,332.738 417.160,320.916 417.372,341.316 417.584,319.661 417.796,315.052 418.008,324.163 418.220,332.818 418.432,316.617 418.644,308.880 418.856,315.775 419.068,321.595 419.279,312.553 419.491,327.429 419.703,314.966 419.915,326.643 420.127,336.018 420.339,312.949 420.551,321.744 420.763,321.130 420.975,318.427 421.187,310.668 421.399,322.874 421.611,318.862 421.822,326.221 422.034,342.432 422.246,327.053 422.458,331.777 422.670,330.264 422.882,342.382 423.094,352.058 423.306,326.339 423.518,358.281 423.730,351.581 423.942,341.375 424.154,349.052 424.365,352.305 424.577,344.585 424.789,342.606 425.001,337.342 425.213,338.117 425.425,352.505 425.637,330.642 425.849,330.805 426.061,318.279 426.273,316.285 426.485,329.086 426.696,319.334 426.908,316.749 427.120,328.359 427.332,339.805 427.544,317.047 427.756,329.358 427.968,321.594 428.180,304.963 428.392,317.131 428.604,319.562 428.816,328.271 429.028,322.840 429.239,319.659 429.451,327.946 429.663,336.572 429.875,324.127 430.087,326.475 430.299,329.742 430.511,323.067 430.723,347.859 430.935,341.892 431.147,338.784 431.359,342.868 431.571,337.116 431.782,344.506 431.994,340.184 432.206,365.262 432.418,340.978 432.630,356.257 432.842,354.090 433.054,339.808 433.266,360.243 433.478,353.265 433.690,336.831 433.902,338.197 434.113,335.920 434.325,319.029 434.537,323.674 434.749,325.157 434.961,334.240 435.173,327.250 435.385,313.988 435.597,322.327 435.809,321.993 436.021,315.546 436.233,327.478 436.445,321.051 436.656,321.359 436.868,329.229 437.080,329.754 437.292,322.940 437.504,325.085 437.716,323.284 437.928,312.005 438.140,332.911 438.352,332.413 438.564,311.268 438.776,325.031 438.988,337.059 439.199,329.272 439.411,340.915 439.623,328.729 439.835,340.764 440.047,358.711 440.259,341.712 440.471,349.712 440.683,354.408 440.895,347.330 441.107,351.538 441.319,358.419 441.530,346.668 441.742,355.275 441.954,355.026 442.166,335.727 442.378,345.402 442.590,363.111 442.802,329.075 443.014,345.415 443.226,339.317 443.438,339.828 443.650,331.409 443.862,333.812 444.073,335.442 444.285,330.202 444.497,317.706 444.709,331.659 444.921,331.916 445.133,313.649 445.345,313.821 445.557,327.746 445.769,336.604 445.981,317.749 446.193,335.196 446.404,332.000 446.616,327.328 446.828,327.443 447.040,330.785 447.252,332.213 447.464,336.409 447.676,320.954 447.888,332.449 448.100,337.025 448.312,350.015 448.524,342.192 448.736,349.333 448.947,347.768 449.159,351.565 449.371,344.638 449.583,351.699 449.795,360.403 450.007,347.566 450.219,359.153 450.431,356.877 450.643,345.460 450.855,357.388 451.067,348.098 451.279,337.491 451.490,361.746 451.702,342.282 451.914,334.962 452.126,344.477 452.338,329.940 452.550,332.422 452.762,325.597 452.974,326.693 453.186,334.044 453.398,331.256 453.610,326.351 453.821,336.007 454.033,323.572 454.245,326.662 454.457,348.995 454.669,326.770 454.881,322.000 455.093,337.087 455.305,335.640 455.517,328.706 455.729,325.919 455.941,331.374 456.153,337.251 456.364,337.868 456.576,342.439 456.788,344.656 457.000,343.854 457.212,342.722 457.424,339.682 457.636,346.911 457.848,344.855 458.060,356.714 458.272,360.065 458.484,345.838 458.696,356.871 458.907,364.047 459.119,350.362 459.331,351.376 459.543,353.496 459.755,350.296 459.967,343.808 460.179,349.067 460.391,337.281 460.603,338.044 460.815,342.459 461.027,333.726 461.238,350.432 461.450,335.599 461.662,332.594 461.874,335.441 462.086,330.198 462.298,323.089 462.510,326.686 462.722,315.981 462.934,322.168 463.146,321.660 463.358,323.992 463.570,342.791 463.781,324.601 463.993,321.458 464.205,337.798 464.417,346.669 464.629,342.620 464.841,348.146 465.053,340.719 465.265,333.766 465.477,346.051 465.689,341.817 465.901,338.732 466.113,358.915 466.324,353.074 466.536,336.388 466.748,359.188 466.960,357.147 467.172,348.983 467.384,365.916 467.596,351.728 467.808,354.110 468.020,360.338 468.232,351.662 468.444,356.604 468.655,348.150 468.867,337.656 469.079,354.839 469.291,349.082 469.503,327.404 469.715,338.047 469.927,339.282 470.139,327.824 470.351,329.284 470.563,314.728 470.775,323.655 470.987,322.879 471.198,314.469 471.410,336.629 471.622,345.527 471.834,329.812 472.046,332.283 472.258,335.923 472.470,330.861 472.682,341.637 472.894,327.602 473.106,323.850 473.318,348.340 473.529,336.209 473.741,331.361 473.953,343.432 474.165,350.216 474.377,352.382 474.589,346.607 474.801,342.866 475.013,349.735 475.225,361.114 475.437,350.639 475.649,353.644 475.861,367.037 476.072,353.994 476.284,353.988 476.496,367.346 476.708,347.905 476.920,363.842 477.132,360.449 477.344,339.459 477.556,365.436 477.768,360.848 477.980,338.228 478.192,351.128 478.404,338.007 478.615,333.367 478.827,330.896 479.039,318.777 479.251,339.947 479.463,341.616 479.675,365.543 479.887,326.883 480.099,342.928 480.311,328.098 480.523,324.276 480.735,345.435 480.946,333.303 481.158,334.060 481.370,345.252 481.582,325.601 481.794,322.076 482.006,330.337 482.218,339.090 482.430,332.292 482.642,339.735 482.854,337.265 483.066,346.962 483.278,356.936 483.489,341.894 483.701,356.227 483.913,347.720 484.125,354.573 484.337,356.319 484.549,353.593 484.761,356.166 484.973,366.730 485.185,351.541 485.397,360.498 485.609,363.474 485.821,350.171 486.032,350.382 486.244,353.369 486.456,342.575 486.668,345.953 486.880,346.779 487.092,345.588 487.304,352.795 487.516,337.164 487.728,326.051 487.940,346.891 488.152,340.656 488.363,342.166 488.575,352.008 488.787,327.151 488.999,323.459 489.211,343.669 489.423,343.813 489.635,333.326 489.847,345.533 490.059,332.166 490.271,324.664 490.483,334.924 490.695,337.184 490.906,344.214 491.118,348.337 491.330,336.226 491.542,348.157 491.754,345.956 491.966,333.905 492.178,353.260 492.390,352.057 492.602,351.750 492.814,361.682 493.026,351.631 493.238,355.383 493.449,366.521 493.661,352.416 493.873,356.572 494.085,367.422 494.297,352.695 494.509,358.049 494.721,357.793 494.933,347.795 495.145,348.847 495.357,353.570 495.569,342.273 495.780,341.647 495.992,333.273 496.204,334.222 496.416,344.678 496.628,340.162 496.840,323.546 497.052,339.857 497.264,341.275 497.476,328.649 497.688,329.914 497.900,334.355 498.112,326.193 498.323,324.804 498.535,328.608 498.747,325.157 498.959,331.136 499.171,327.348 499.383,351.086 499.595,352.783 499.807,344.633 500.019,336.509 500.231,339.421 500.443,345.393 500.654,343.106 500.866,349.589 501.078,346.325 501.290,354.036 501.502,349.710 501.714,346.810 501.926,362.008 502.138,356.848 502.350,356.921 502.562,363.839 502.774,353.012 502.986,356.069 503.197,362.413 503.409,346.863 503.621,343.823 503.833,363.737 504.045,336.349 504.257,351.802 504.469,340.765 504.681,342.437 504.893,335.757 505.105,331.499 505.317,347.898 505.529,334.916 505.740,340.225 505.952,338.294 506.164,347.949 506.376,332.729 506.588,348.433 "/>
</g>
<g id = "ID000007" clip-path = "url(#ID000002)" >
      <polyline fill = "none" stroke-linecap = "square" stroke-linejoin = "round" stroke = "#0000ff" stroke-width = "0.500pt" stroke-dasharray = "none" stroke-opacity = "1.000" points = "72.800,277.874 73.012,259.316 73.224,252.751 73.436,260.715 73.648,278.327 73.860,281.161 74.071,281.186 74.283,281.060 74.495,273.965 74.707,275.707 74.919,288.898 75.131,291.850 75.343,292.664 75.555,283.415 75.767,282.730 75.979,285.621 76.191,290.943 76.403,285.508 76.614,282.029 76.826,286.362 77.038,306.090 77.250,305.431 77.462,322.738 77.674,304.531 77.886,302.360 78.098,307.685 78.310,306.440 78.522,311.420 78.734,319.618 78.946,321.252 79.157,311.385 79.369,305.927 79.581,317.779 79.793,326.625 80.005,315.129 80.217,321.042 80.429,334.574 80.641,332.754 80.853,336.613 81.065,345.602 81.277,336.011 81.488,337.599 81.700,354.118 81.912,324.170 82.124,332.288 82.336,334.219 82.548,320.960 82.760,323.926 82.972,330.181 83.184,317.819 83.396,326.513 83.608,307.166 83.820,304.364 84.031,311.738 84.243,307.457 84.455,289.267 84.667,309.609 84.879,324.464 85.091,301.416 85.303,288.758 85.515,281.504 85.727,280.994 85.939,280.414 86.151,288.898 86.363,279.673 86.574,281.345 86.786,276.352 86.998,277.364 87.210,285.923 87.422,281.915 87.634,279.782 87.846,274.805 88.058,271.091 88.270,272.668 88.482,284.674 88.694,271.676 88.905,273.685 89.117,280.986 89.329,280.288 89.541,285.456 89.753,279.872 89.965,270.607 90.177,263.185 90.389,265.639 90.601,273.883 90.813,278.025 91.025,279.066 91.237,275.259 91.448,275.960 91.660,282.156 91.872,285.203 92.084,290.744 92.296,284.648 92.508,293.896 92.720,289.392 92.932,277.793 93.144,291.065 93.356,286.267 93.568,284.419 93.779,299.338 93.991,303.068 94.203,320.330 94.415,322.384 94.627,306.817 94.839,288.035 95.051,291.311 95.263,300.948 95.475,302.797 95.687,304.073 95.899,319.496 96.111,303.861 96.322,301.954 96.534,309.819 96.746,339.993 96.958,333.995 97.170,321.329 97.382,336.153 97.594,335.199 97.806,333.250 98.018,343.508 98.230,335.853 98.442,333.679 98.654,347.357 98.865,334.151 99.077,335.665 99.289,319.629 99.501,306.653 99.713,322.576 99.925,334.101 100.137,319.862 100.349,325.014 100.561,326.728 100.773,306.172 100.985,309.213 101.196,298.021 101.408,301.797 101.620,310.836 101.832,304.917 102.044,291.813 102.256,289.374 102.468,286.283 102.680,292.431 102.892,303.390 103.104,306.067 103.316,297.686 103.528,288.957 103.739,286.603 103.951,287.190 104.163,277.533 104.375,280.705 104.587,271.946 104.799,269.979 105.011,277.898 105.223,283.624 105.435,277.133 105.647,274.987 105.859,277.924 106.071,274.159 106.282,272.428 106.494,277.246 106.706,277.026 106.918,279.411 107.130,297.947 107.342,289.364 107.554,273.220 107.766,264.375 107.978,258.128 108.190,263.239 108.402,278.948 108.613,290.607 108.825,298.903 109.037,275.650 109.249,278.403 109.461,275.347 109.673,273.167 109.885,276.079 110.097,289.969 110.309,295.594 110.521,301.167 110.733,299.105 110.945,300.020 111.156,288.849 111.368,288.489 111.580,282.380 111.792,288.810 112.004,295.976 112.216,296.793 112.428,293.081 112.640,296.617 112.852,305.880 113.064,314.430 113.276,317.539 113.488,303.807 113.699,318.089 113.911,325.679 114.123,332.129 114.335,332.770 114.547,325.779 114.759,328.264 114.971,347.456 115.183,336.970 115.395,327.919 115.607,338.364 115.819,325.951 116.030,325.302 116.242,332.361 116.454,319.570 116.666,317.711 116.878,339.669 117.090,310.185 117.302,332.862 117.514,311.459 117.726,300.521 117.938,305.262 118.150,311.588 118.362,303.686 118.573,301.639 118.785,308.700 118.997,302.542 119.209,295.092 119.421,288.102 119.633,289.851 119.845,290.204 120.057,280.926 120.269,289.720 120.481,305.158 120.693,288.401 120.904,291.387 121.116,283.606 121.328,287.819 121.540,287.308 121.752,284.542 121.964,279.877 122.176,272.024 122.388,270.530 122.600,286.309 122.812,277.499 123.024,281.796 123.236,275.863 123.447,275.645 123.659,282.888 123.871,279.544 124.083,288.472 124.295,284.733 124.507,287.477 124.719,283.130 124.931,274.060 125.143,283.475 125.355,288.133 125.567,283.017 125.779,280.984 125.990,296.712 126.202,282.038 126.414,273.621 126.626,278.796 126.838,278.751 127.050,283.050 127.262,280.439 127.474,289.379 127.686,287.057 127.898,287.414 128.110,273.017 128.321,284.187 128.533,282.818 128.745,290.213 128.957,308.082 129.169,298.870 129.381,293.649 129.593,294.917 129.805,290.276 130.017,301.611 130.229,313.597 130.441,316.179 130.653,317.218 130.864,313.792 131.076,326.366 131.288,334.364 131.500,338.745 131.712,322.659 131.924,336.074 132.136,337.796 132.348,327.565 132.560,340.034 132.772,324.384 132.984,327.001 133.196,332.717 133.407,317.085 133.619,308.771 133.831,315.728 134.043,308.686 134.255,303.965 134.467,292.158 134.679,297.064 134.891,291.283 135.103,296.123 135.315,289.186 135.527,273.313 135.738,287.153 135.950,287.561 136.162,283.726 136.374,288.184 136.586,295.397 136.798,278.501 137.010,280.223 137.222,279.515 137.434,276.403 137.646,275.794 137.858,272.086 138.070,277.178 138.281,274.272 138.493,279.084 138.705,266.105 138.917,261.982 139.129,274.719 139.341,275.377 139.553,273.433 139.765,266.716 139.977,272.563 140.189,284.599 140.401,284.610 140.613,269.959 140.824,271.708 141.036,272.394 141.248,266.792 141.460,260.274 141.672,254.913 141.884,268.733 142.096,276.659 142.308,268.496 142.520,262.856 142.732,276.643 142.944,278.484 143.155,270.507 143.367,278.482 143.579,271.071 143.791,276.878 144.003,278.541 144.215,270.818 144.427,279.737 144.639,285.769 144.851,277.606 145.063,290.925 145.275,286.291 145.487,284.623 145.698,295.925 145.910,294.790 146.122,295.509 146.334,288.088 146.546,299.777 146.758,299.052 146.970,303.355 147.182,313.128 147.394,321.901 147.606,320.237 147.818,317.398 148.029,327.894 148.241,324.327 148.453,334.607 148.665,323.335 148.877,331.917 149.089,333.072 149.301,323.949 149.513,329.846 149.725,327.916 149.937,313.683 150.149,321.441 150.361,310.570 150.572,301.598 150.784,309.967 150.996,300.899 151.208,300.727 151.420,288.178 151.632,299.953 151.844,293.847 152.056,295.346 152.268,287.983 152.480,275.243 152.692,268.500 152.904,268.918 153.115,281.529 153.327,293.416 153.539,269.788 153.751,259.201 153.963,273.283 154.175,267.953 154.387,271.748 154.599,270.053 154.811,266.053 155.023,268.468 155.235,261.461 155.446,278.136 155.658,265.557 155.870,259.582 156.082,274.977 156.294,277.775 156.506,271.958 156.718,265.196 156.930,256.121 157.142,259.930 157.354,264.783 157.566,271.728 157.778,259.924 157.989,265.103 158.201,258.101 158.413,249.189 158.625,245.838 158.837,245.653 159.049,253.405 159.261,259.157 159.473,265.055 159.685,272.453 159.897,273.201 160.109,269.510 160.321,254.872 160.532,259.050 160.744,277.948 160.956,270.618 161.168,276.695 161.380,276.584 161.592,278.064 161.804,276.724 162.016,269.678 162.228,283.407 162.440,277.786 162.652,271.368 162.863,278.613 163.075,277.260 163.287,292.946 163.499,291.580 163.711,288.195 163.923,302.568 164.135,291.771 164.347,297.619 164.559,312.750 164.771,318.329 164.983,322.238 165.195,316.979 165.406,330.376 165.618,321.532 165.830,322.421 166.042,327.597 166.254,320.336 166.466,309.422 166.678,311.588 166.890,298.285 167.102,308.407 167.314,292.432 167.526,282.916 167.738,303.844 167.949,290.374 168.161,274.990 168.373,272.786 168.585,270.193 168.797,271.285 169.009,264.558 169.221,266.247 169.433,269.348 169.645,264.666 169.857,268.613 170.069,258.826 170.280,264.953 170.492,278.110 170.704,264.901 170.916,256.339 171.128,263.021 171.340,262.079 171.552,261.503 171.764,249.478 171.976,249.157 172.188,250.050 172.400,240.410 172.612,248.122 172.823,250.877 173.035,252.756 173.247,250.777 173.459,253.715 173.671,262.465 173.883,261.436 174.095,264.869 174.307,257.024 174.519,256.326 174.731,248.142 174.943,250.957 175.154,261.952 175.366,252.342 175.578,254.930 175.790,255.135 176.002,259.864 176.214,257.831 176.426,245.928 176.638,246.203 176.850,262.489 177.062,269.129 177.274,263.784 177.486,266.466 177.697,273.823 177.909,276.508 178.121,260.536 178.333,262.103 178.545,279.438 178.757,285.811 178.969,275.709 179.181,291.492 179.393,291.327 179.605,282.489 179.817,286.584 180.029,286.369 180.240,292.718 180.452,290.512 180.664,291.945 180.876,295.667 181.088,310.314 181.300,312.668 181.512,307.254 181.724,306.560 181.936,315.621 182.148,313.470 182.360,324.129 182.571,316.167 182.783,301.995 182.995,301.924 183.207,305.599 183.419,293.730 183.631,299.902 183.843,282.811 184.055,293.189 184.267,274.173 184.479,273.504 184.691,272.303 184.903,269.909 185.114,263.884 185.326,259.074 185.538,273.318 185.750,277.735 185.962,288.084 186.174,264.659 186.386,253.650 186.598,256.566 186.810,260.740 187.022,258.089 187.234,264.312 187.446,256.794 187.657,240.467 187.869,238.119 188.081,239.567 188.293,236.022 188.505,229.211 188.717,228.702 188.929,234.373 189.141,247.323 189.353,250.545 189.565,243.689 189.777,236.488 189.988,244.802 190.200,243.246 190.412,236.176 190.624,235.335 190.836,232.224 191.048,235.283 191.260,247.469 191.472,249.004 191.684,252.747 191.896,242.970 192.108,240.098 192.320,236.823 192.531,238.901 192.743,242.194 192.955,235.401 193.167,248.153 193.379,263.437 193.591,257.366 193.803,242.993 194.015,237.445 194.227,238.829 194.439,242.237 194.651,248.718 194.863,247.936 195.074,249.002 195.286,259.145 195.498,253.429 195.710,265.961 195.922,266.985 196.134,266.569 196.346,276.639 196.558,268.990 196.770,277.503 196.982,301.541 197.194,292.502 197.405,290.980 197.617,323.385 197.829,298.605 198.041,308.688 198.253,315.744 198.465,287.434 198.677,281.239 198.889,287.806 199.101,272.447 199.313,271.063 199.525,270.508 199.737,261.859 199.948,260.919 200.160,254.197 200.372,265.877 200.584,255.877 200.796,255.101 201.008,256.820 201.220,239.227 201.432,238.086 201.644,234.537 201.856,233.599 202.068,236.205 202.279,237.313 202.491,244.842 202.703,250.408 202.915,251.866 203.127,233.679 203.339,213.877 203.551,214.855 203.763,219.269 203.975,219.726 204.187,217.861 204.399,211.505 204.611,209.314 204.822,205.368 205.034,207.486 205.246,222.587 205.458,224.219 205.670,216.782 205.882,221.572 206.094,219.023 206.306,214.777 206.518,212.448 206.730,217.208 206.942,220.129 207.154,221.612 207.365,221.644 207.577,212.529 207.789,195.695 208.001,196.192 208.213,209.354 208.425,228.754 208.637,233.412 208.849,238.522 209.061,244.991 209.273,222.654 209.485,225.126 209.696,234.106 209.908,227.403 210.120,240.726 210.332,251.223 210.544,240.619 210.756,243.595 210.968,247.204 211.180,256.782 211.392,291.646 211.604,289.799 211.816,285.608 212.028,290.098 212.239,294.331 212.451,273.763 212.663,262.788 212.875,250.357 213.087,237.739 213.299,228.827 213.511,231.913 213.723,226.647 213.935,215.002 214.147,210.848 214.359,208.596 214.571,200.590 214.782,197.505 214.994,193.934 215.206,187.290 215.418,194.862 215.630,212.368 215.842,192.240 216.054,173.777 216.266,158.772 216.478,151.961 216.690,156.325 216.902,163.514 217.113,188.746 217.325,177.971 217.537,159.560 217.749,151.001 217.961,146.125 218.173,143.524 218.385,146.593 218.597,152.363 218.809,159.610 219.021,164.817 219.233,155.997 219.445,148.839 219.656,141.215 219.868,128.745 220.080,126.293 220.292,124.608 220.504,126.664 220.716,128.316 220.928,121.064 221.140,118.370 221.352,126.844 221.564,126.270 221.776,118.899 221.988,117.421 222.199,119.225 222.411,129.059 222.623,126.872 222.835,116.404 223.047,109.019 223.259,106.561 223.471,105.973 223.683,100.478 223.895,97.105 224.107,93.918 224.319,88.240 224.530,88.291 224.742,97.135 224.954,105.828 225.166,108.577 225.378,110.030 225.590,113.456 225.802,113.720 226.014,106.329 226.226,98.385 226.438,102.112 226.650,110.286 226.862,106.462 227.073,106.473 227.285,111.116 227.497,108.660 227.709,101.950 227.921,92.192 228.133,93.016 228.345,95.619 228.557,89.407 228.769,94.997 228.981,106.861 229.193,104.694 229.404,98.454 229.616,92.532 229.828,97.839 230.040,95.396 230.252,91.437 230.464,86.473 230.676,78.945 230.888,82.400 231.100,89.343 231.312,89.780 231.524,87.262 231.736,83.022 231.947,81.767 232.159,86.335 232.371,87.836 232.583,90.863 232.795,90.342 233.007,90.741 233.219,85.231 233.431,79.968 233.643,84.961 233.855,82.835 234.067,80.248 234.279,87.475 234.490,91.342 234.702,77.516 234.914,67.029 235.126,68.220 235.338,75.026 235.550,73.426 235.762,72.982 235.974,72.405 236.186,68.995 236.398,68.484 236.610,61.437 236.821,54.528 237.033,59.219 237.245,78.874 237.457,79.117 237.669,64.857 237.881,62.978 238.093,56.921 238.305,54.084 238.517,53.478 238.729,63.777 238.941,77.548 239.153,70.688 239.364,64.925 239.576,64.390 239.788,69.361 240.000,66.120 240.212,57.811 240.424,59.627 240.636,73.129 240.848,71.181 241.060,62.715 241.272,62.180 241.484,62.128 241.696,66.313 241.907,60.724 242.119,60.048 242.331,63.926 242.543,58.278 242.755,56.408 242.967,54.028 243.179,51.455 243.391,53.813 243.603,60.015 243.815,54.674 244.027,46.508 244.238,51.583 244.450,62.731 244.662,59.411 244.874,61.213 245.086,70.276 245.298,61.301 245.510,59.939 245.722,61.228 245.934,56.979 246.146,56.896 246.358,56.702 246.570,60.784 246.781,64.746 246.993,65.526 247.205,52.275 247.417,48.339 247.629,57.137 247.841,65.196 248.053,62.798 248.265,58.933 248.477,61.601 248.689,70.249 248.901,69.203 249.113,61.562 249.324,60.764 249.536,62.434 249.748,54.684 249.960,47.796 250.172,45.064 250.384,52.809 250.596,62.930 250.808,57.846 251.020,51.560 251.232,56.925 251.444,63.653 251.655,59.542 251.867,58.531 252.079,54.629 252.291,56.725 252.503,59.076 252.715,53.282 252.927,55.081 253.139,60.029 253.351,57.455 253.563,58.152 253.775,60.423 253.987,58.835 254.198,60.088 254.410,61.849 254.622,55.938 254.834,47.994 255.046,55.623 255.258,58.593 255.470,57.571 255.682,69.290 255.894,74.249 256.106,74.116 256.318,66.593 256.529,60.149 256.741,54.487 256.953,52.128 257.165,53.364 257.377,55.595 257.589,57.655 257.801,58.692 258.013,55.260 258.225,57.092 258.437,59.763 258.649,55.600 258.861,55.485 259.072,54.774 259.284,55.107 259.496,58.443 259.708,54.400 259.920,52.299 260.132,61.535 260.344,68.680 260.556,58.462 260.768,53.937 260.980,50.180 261.192,43.991 261.404,44.022 261.615,57.861 261.827,68.569 262.039,55.567 262.251,44.255 262.463,48.970 262.675,60.409 262.887,52.902 263.099,55.286 263.311,58.707 263.523,56.035 263.735,55.580 263.946,63.507 264.158,59.460 264.370,52.826 264.582,60.303 264.794,74.793 265.006,71.390 265.218,56.311 265.430,50.875 265.642,50.350 265.854,61.255 266.066,65.531 266.278,58.884 266.489,55.176 266.701,50.635 266.913,44.065 267.125,38.377 267.337,38.836 267.549,46.015 267.761,53.114 267.973,57.664 268.185,65.129 268.397,63.987 268.609,56.903 268.821,45.351 269.032,45.217 269.244,60.181 269.456,62.620 269.668,59.873 269.880,60.564 270.092,60.228 270.304,53.340 270.516,53.074 270.728,55.926 270.940,49.577 271.152,44.488 271.363,44.126 271.575,49.385 271.787,52.335 271.999,50.338 272.211,49.131 272.423,54.031 272.635,43.613 272.847,44.307 273.059,56.538 273.271,59.865 273.483,60.608 273.695,63.040 273.906,70.010 274.118,66.826 274.330,59.701 274.542,59.858 274.754,61.948 274.966,56.173 275.178,53.369 275.390,49.290 275.602,47.821 275.814,49.151 276.026,45.905 276.238,52.136 276.449,56.509 276.661,45.683 276.873,44.017 277.085,45.634 277.297,45.253 277.509,46.902 277.721,46.679 277.933,48.930 278.145,55.148 278.357,53.992 278.569,48.859 278.780,55.748 278.992,67.882 279.204,59.598 279.416,52.108 279.628,56.687 279.840,60.084 280.052,57.512 280.264,51.509 280.476,46.615 280.688,47.731 280.900,44.597 281.112,47.386 281.323,52.760 281.535,55.267 281.747,54.206 281.959,59.545 282.171,65.889 282.383,64.945 282.595,64.396 282.807,67.479 283.019,56.770 283.231,53.200 283.443,55.044 283.654,59.105 283.866,61.604 284.078,55.378 284.290,55.557 284.502,67.483 284.714,60.224 284.926,44.373 285.138,46.668 285.350,62.454 285.562,63.472 285.774,63.169 285.986,68.946 286.197,68.324 286.409,59.051 286.621,55.886 286.833,55.435 287.045,65.139 287.257,71.837 287.469,72.943 287.681,70.665 287.893,67.365 288.105,68.337 288.317,63.079 288.529,57.137 288.740,56.784 288.952,54.733 289.164,54.987 289.376,57.699 289.588,64.975 289.800,54.720 290.012,35.527 290.224,31.500 290.436,39.517 290.648,50.265 290.860,57.858 291.071,62.336 291.283,55.293 291.495,50.576 291.707,53.414 291.919,61.322 292.131,67.028 292.343,69.418 292.555,56.280 292.767,51.758 292.979,54.309 293.191,58.747 293.403,57.751 293.614,51.494 293.826,52.017 294.038,63.225 294.250,78.788 294.462,89.075 294.674,70.273 294.886,57.132 295.098,58.050 295.310,63.544 295.522,67.779 295.734,72.710 295.946,67.598 296.157,52.576 296.369,49.875 296.581,49.060 296.793,47.267 297.005,44.139 297.217,45.065 297.429,51.337 297.641,62.340 297.853,67.306 298.065,60.207 298.277,55.674 298.488,61.994 298.700,63.276 298.912,53.793 299.124,54.451 299.336,51.928 299.548,53.360 299.760,62.102 299.972,68.182 300.184,72.468 300.396,62.886 300.608,54.843 300.820,53.060 301.031,59.306 301.243,55.385 301.455,50.734 301.667,62.399 301.879,75.741 302.091,71.004 302.303,51.951 302.515,44.672 302.727,47.458 302.939,50.194 303.151,50.733 303.363,52.460 303.574,48.902 303.786,49.803 303.998,51.671 304.210,55.939 304.422,57.170 304.634,52.146 304.846,50.602 305.058,48.746 305.270,49.054 305.482,55.663 305.694,54.762 305.905,49.995 306.117,55.281 306.329,61.264 306.541,63.961 306.753,57.907 306.965,48.794 307.177,43.086 307.389,42.799 307.601,49.795 307.813,55.478 308.025,56.951 308.237,52.291 308.448,54.025 308.660,59.055 308.872,58.681 309.084,64.157 309.296,69.370 309.508,61.741 309.720,55.320 309.932,56.551 310.144,56.821 310.356,54.240 310.568,56.839 310.779,65.631 310.991,75.286 311.203,81.098 311.415,81.363 311.627,65.886 311.839,50.139 312.051,47.881 312.263,55.982 312.475,56.497 312.687,54.168 312.899,51.561 313.111,50.221 313.322,45.924 313.534,47.662 313.746,66.292 313.958,67.711 314.170,58.637 314.382,62.697 314.594,63.627 314.806,59.612 315.018,56.145 315.230,59.976 315.442,64.346 315.654,63.485 315.865,64.659 316.077,53.883 316.289,37.032 316.501,37.029 316.713,49.608 316.925,66.476 317.137,73.300 317.349,78.553 317.561,77.073 317.773,57.271 317.985,54.146 318.196,59.346 318.408,57.404 318.620,66.548 318.832,67.935 319.044,56.294 319.256,49.750 319.468,51.802 319.680,63.498 319.892,77.188 320.104,75.948 320.316,67.170 320.528,64.936 320.739,64.017 320.951,55.799 321.163,53.868 321.375,53.727 321.587,49.894 321.799,48.901 322.011,54.934 322.223,59.240 322.435,56.727 322.647,56.002 322.859,57.121 323.071,54.798 323.282,55.520 323.494,56.183 323.706,52.997 323.918,63.967 324.130,85.582 324.342,70.586 324.554,52.920 324.766,41.777 324.978,37.503 325.190,42.282 325.402,53.430 325.613,79.052 325.825,75.659 326.037,57.850 326.249,50.826 326.461,48.089 326.673,48.271 326.885,52.260 327.097,60.676 327.309,69.437 327.521,76.523 327.733,70.988 327.945,65.678 328.156,60.007 328.368,48.360 328.580,47.761 328.792,48.202 329.004,50.582 329.216,54.950 329.428,49.829 329.640,47.574 329.852,57.097 330.064,59.425 330.276,53.295 330.487,52.617 330.699,55.950 330.911,66.885 331.123,66.900 331.335,58.008 331.547,51.595 331.759,49.989 331.971,51.170 332.183,47.060 332.395,44.435 332.607,42.708 332.819,38.302 333.030,39.426 333.242,48.844 333.454,59.180 333.666,63.048 333.878,65.913 334.090,69.793 334.302,72.126 334.514,65.533 334.726,58.782 334.938,62.864 335.150,72.370 335.362,70.193 335.573,70.308 335.785,76.963 335.997,74.764 336.209,69.758 336.421,60.783 336.633,61.983 336.845,66.237 337.057,60.607 337.269,67.160 337.481,79.728 337.693,78.943 337.904,73.617 338.116,68.532 338.328,74.679 338.540,73.104 338.752,70.337 338.964,66.409 339.176,59.511 339.388,63.531 339.600,71.492 339.812,72.987 340.024,71.196 340.236,68.240 340.447,67.409 340.659,72.811 340.871,75.230 341.083,79.168 341.295,79.442 341.507,80.707 341.719,76.451 341.931,71.707 342.143,77.131 342.355,76.393 342.567,74.204 342.779,82.335 342.990,87.574 343.202,74.586 343.414,64.621 343.626,66.439 343.838,73.999 344.050,73.534 344.262,73.660 344.474,74.221 344.686,71.500 344.898,71.799 345.110,65.841 345.321,59.647 345.533,64.522 345.745,85.099 345.957,86.816 346.169,73.528 346.381,72.048 346.593,67.066 346.805,65.095 347.017,65.012 347.229,75.834 347.441,91.032 347.653,85.080 347.864,80.079 348.076,80.474 348.288,85.824 348.500,84.188 348.712,76.476 348.924,79.041 349.136,92.958 349.348,92.791 349.560,84.986 349.772,85.186 349.984,86.111 350.196,91.371 350.407,86.896 350.619,86.633 350.831,91.453 351.043,87.197 351.255,86.244 351.467,84.707 351.679,83.133 351.891,86.204 352.103,93.514 352.315,89.835 352.527,82.057 352.738,87.891 352.950,100.401 353.162,98.451 353.374,100.579 353.586,111.041 353.798,103.679 354.010,102.729 354.222,105.739 354.434,102.255 354.646,103.653 354.858,104.265 355.070,109.511 355.281,114.524 355.493,117.072 355.705,105.413 355.917,101.721 356.129,111.759 356.341,121.643 356.553,120.278 356.765,117.990 356.977,121.582 357.189,131.385 357.401,132.537 357.613,126.304 357.824,126.579 358.036,129.659 358.248,123.764 358.460,119.028 358.672,116.852 358.884,125.421 359.096,138.239 359.308,135.496 359.520,130.092 359.732,136.266 359.944,145.466 360.155,143.907 360.367,144.223 360.579,142.381 360.791,146.118 361.003,150.742 361.215,146.918 361.427,150.885 361.639,157.306 361.851,157.587 362.063,160.492 362.275,165.475 362.487,166.310 362.698,169.856 362.910,172.922 363.122,172.539 363.334,166.159 363.546,174.642 363.758,183.708 363.970,184.423 364.182,197.112 364.394,206.432 364.606,213.533 364.818,210.829 365.029,205.989 365.241,205.040 365.453,206.716 365.665,215.426 365.877,222.844 366.089,228.378 366.301,240.071 366.513,240.753 366.725,257.072 366.937,275.653 367.149,276.567 367.361,282.383 367.572,296.146 367.784,298.938 367.996,280.566 368.208,264.030 368.420,254.665 368.632,261.094 368.844,254.422 369.056,240.259 369.268,236.154 369.480,228.699 369.692,220.369 369.904,214.302 370.115,226.910 370.327,234.631 370.539,220.503 370.751,209.081 370.963,211.162 371.175,219.272 371.387,213.820 371.599,216.110 371.811,215.270 372.023,214.444 372.235,213.864 372.446,221.248 372.658,214.244 372.870,209.549 373.082,218.149 373.294,232.266 373.506,225.126 373.718,213.795 373.930,209.194 374.142,208.510 374.354,218.239 374.566,223.050 374.778,218.529 374.989,216.173 375.201,213.776 375.413,204.397 375.625,200.258 375.837,204.027 376.049,211.163 376.261,217.941 376.473,225.508 376.685,235.026 376.897,234.253 377.109,228.681 377.321,221.975 377.532,220.535 377.744,237.807 377.956,244.329 378.168,242.113 378.380,243.500 378.592,253.269 378.804,242.678 379.016,244.140 379.228,257.680 379.440,251.069 379.652,250.404 379.863,253.010 380.075,274.119 380.287,271.847 380.499,272.987 380.711,286.208 380.923,297.501 381.135,306.798 381.347,292.530 381.559,326.828 381.771,312.188 381.983,309.956 382.195,312.456 382.406,297.402 382.618,296.279 382.830,304.956 383.042,277.674 383.254,281.851 383.466,275.095 383.678,260.655 383.890,257.737 384.102,259.949 384.314,250.336 384.526,245.360 384.738,253.809 384.949,247.998 385.161,242.930 385.373,237.738 385.585,236.275 385.797,235.230 386.009,238.723 386.221,231.330 386.433,237.558 386.645,241.907 386.857,236.276 387.069,232.732 387.280,241.412 387.492,249.278 387.704,242.266 387.916,232.194 388.128,242.695 388.340,241.308 388.552,238.085 388.764,232.495 388.976,229.516 389.188,229.961 389.400,224.416 389.612,231.708 389.823,235.646 390.035,236.865 390.247,238.020 390.459,243.382 390.671,248.446 390.883,249.609 391.095,251.987 391.307,250.763 391.519,242.688 391.731,243.209 391.943,248.108 392.154,245.664 392.366,253.210 392.578,252.364 392.790,249.056 393.002,260.545 393.214,258.350 393.426,247.976 393.638,249.444 393.850,260.384 394.062,265.532 394.274,275.610 394.486,277.224 394.697,272.984 394.909,281.434 395.121,278.042 395.333,277.990 395.545,291.264 395.757,291.716 395.969,309.401 396.181,305.671 396.393,302.720 396.605,318.225 396.817,321.266 397.029,308.337 397.240,328.997 397.452,323.107 397.664,317.723 397.876,329.144 398.088,322.367 398.300,311.912 398.512,283.090 398.724,281.927 398.936,294.638 399.148,287.213 399.360,293.531 399.571,288.456 399.783,275.782 399.995,277.168 400.207,278.063 400.419,277.100 400.631,282.103 400.843,278.977 401.055,272.790 401.267,257.897 401.479,264.520 401.691,266.371 401.903,259.621 402.114,259.523 402.326,253.667 402.538,267.755 402.750,280.307 402.962,277.314 403.174,270.333 403.386,256.674 403.598,257.746 403.810,260.841 404.022,260.436 404.234,271.143 404.446,269.826 404.657,246.781 404.869,245.057 405.081,246.818 405.293,244.927 405.505,238.696 405.717,243.735 405.929,249.827 406.141,254.471 406.353,265.471 406.565,254.524 406.777,256.243 406.988,260.131 407.200,265.973 407.412,250.203 407.624,253.551 407.836,259.257 408.048,252.721 408.260,265.733 408.472,269.506 408.684,277.000 408.896,266.942 409.108,267.324 409.320,260.258 409.531,270.506 409.743,269.473 409.955,265.627 410.167,279.389 410.379,283.839 410.591,291.761 410.803,278.492 411.015,268.304 411.227,276.360 411.439,283.756 411.651,280.060 411.863,292.285 412.074,292.114 412.286,297.480 412.498,302.367 412.710,300.943 412.922,316.501 413.134,320.694 413.346,321.252 413.558,321.847 413.770,331.011 413.982,325.064 414.194,323.688 414.405,321.328 414.617,324.651 414.829,324.900 415.041,313.100 415.253,299.745 415.465,307.499 415.677,294.817 415.889,281.673 416.101,292.782 416.313,290.839 416.525,286.659 416.737,288.071 416.948,277.374 417.160,287.210 417.372,286.725 417.584,281.034 417.796,288.278 418.008,283.902 418.220,271.532 418.432,273.163 418.644,274.342 418.856,262.204 419.068,271.461 419.279,281.014 419.491,278.273 419.703,289.905 419.915,291.672 420.127,273.823 420.339,256.169 420.551,256.189 420.763,262.748 420.975,262.963 421.187,259.809 421.399,260.921 421.611,254.622 421.822,249.988 422.034,255.453 422.246,274.303 422.458,268.796 422.670,267.757 422.882,270.339 423.094,268.772 423.306,265.824 423.518,265.132 423.730,267.580 423.942,270.293 424.154,273.628 424.365,273.641 424.577,268.731 424.789,246.682 425.001,251.034 425.213,266.009 425.425,275.162 425.637,289.213 425.849,297.697 426.061,290.925 426.273,280.239 426.485,276.653 426.696,283.639 426.908,279.821 427.120,297.449 427.332,286.403 427.544,292.006 427.756,289.413 427.968,286.063 428.180,301.218 428.392,313.378 428.604,308.883 428.816,325.702 429.028,320.414 429.239,309.875 429.451,324.428 429.663,317.565 429.875,322.039 430.087,332.087 430.299,323.683 430.511,331.373 430.723,341.290 430.935,328.969 431.147,324.590 431.359,334.090 431.571,317.114 431.782,319.949 431.994,323.199 432.206,306.957 432.418,309.701 432.630,325.579 432.842,306.809 433.054,295.430 433.266,281.094 433.478,276.511 433.690,281.883 433.902,288.010 434.113,301.862 434.325,300.751 434.537,278.953 434.749,277.230 434.961,277.763 435.173,266.792 435.385,273.633 435.597,282.332 435.809,285.621 436.021,291.953 436.233,284.778 436.445,287.767 436.656,271.249 436.868,268.412 437.080,259.984 437.292,259.037 437.504,267.355 437.716,266.431 437.928,259.854 438.140,262.018 438.352,266.862 438.564,272.404 438.776,265.343 438.988,261.971 439.199,268.118 439.411,277.918 439.623,281.352 439.835,267.958 440.047,262.108 440.259,261.868 440.471,267.789 440.683,260.144 440.895,257.740 441.107,257.169 441.319,254.317 441.530,253.165 441.742,264.345 441.954,286.347 442.166,279.017 442.378,284.960 442.590,285.560 442.802,291.608 443.014,285.519 443.226,289.865 443.438,288.725 443.650,290.796 443.862,300.779 444.073,304.055 444.285,305.073 444.497,303.680 444.709,310.274 444.921,292.249 445.133,308.526 445.345,311.944 445.557,310.762 445.769,311.198 445.981,328.691 446.193,328.288 446.404,333.699 446.616,326.810 446.828,326.186 447.040,346.956 447.252,336.718 447.464,329.958 447.676,342.761 447.888,336.995 448.100,325.333 448.312,337.893 448.524,322.528 448.736,323.039 448.947,333.657 449.159,309.327 449.371,318.055 449.583,319.468 449.795,315.682 450.007,311.201 450.219,305.758 450.431,302.888 450.643,300.480 450.855,300.422 451.067,300.911 451.279,297.807 451.490,303.194 451.702,289.414 451.914,277.534 452.126,280.741 452.338,292.397 452.550,283.551 452.762,276.183 452.974,279.815 453.186,280.965 453.398,273.952 453.610,269.541 453.821,265.504 454.033,264.312 454.245,287.414 454.457,283.967 454.669,268.289 454.881,273.004 455.093,266.574 455.305,260.629 455.517,261.589 455.729,268.401 455.941,290.182 456.153,278.112 456.364,271.194 456.576,276.870 456.788,277.681 457.000,281.612 457.212,265.681 457.424,268.260 457.636,293.321 457.848,283.039 458.060,279.119 458.272,274.918 458.484,278.348 458.696,287.798 458.907,277.396 459.119,280.731 459.331,286.138 459.543,275.851 459.755,286.944 459.967,279.691 460.179,279.610 460.391,284.452 460.603,287.658 460.815,291.688 461.027,282.594 461.238,291.516 461.450,296.792 461.662,310.938 461.874,302.094 462.086,310.601 462.298,321.834 462.510,309.125 462.722,320.115 462.934,313.062 463.146,324.212 463.358,340.114 463.570,328.444 463.781,332.551 463.993,339.623 464.205,339.111 464.417,331.009 464.629,344.148 464.841,340.401 465.053,324.703 465.265,330.047 465.477,342.702 465.689,320.019 465.901,325.594 466.113,328.445 466.324,310.063 466.536,313.868 466.748,313.620 466.960,290.443 467.172,289.137 467.384,302.756 467.596,304.562 467.808,290.896 468.020,290.918 468.232,293.765 468.444,297.004 468.655,288.145 468.867,288.611 469.079,290.898 469.291,281.933 469.503,283.899 469.715,281.350 469.927,279.583 470.139,283.368 470.351,288.357 470.563,279.499 470.775,277.972 470.987,282.796 471.198,281.344 471.410,282.884 471.622,276.583 471.834,267.483 472.046,276.667 472.258,279.021 472.470,276.183 472.682,292.528 472.894,288.737 473.106,291.481 473.318,288.584 473.529,280.148 473.741,273.579 473.953,275.507 474.165,273.646 474.377,277.058 474.589,278.322 474.801,279.625 475.013,279.987 475.225,289.313 475.437,278.131 475.649,279.372 475.861,287.057 476.072,277.914 476.284,286.725 476.496,288.972 476.708,290.638 476.920,282.261 477.132,295.080 477.344,299.756 477.556,296.305 477.768,295.209 477.980,292.792 478.192,290.723 478.404,289.429 478.615,304.462 478.827,326.093 479.039,308.563 479.251,305.506 479.463,303.543 479.675,320.007 479.887,320.612 480.099,331.142 480.311,327.529 480.523,337.503 480.735,330.855 480.946,335.926 481.158,346.048 481.370,331.929 481.582,345.019 481.794,337.660 482.006,330.032 482.218,341.186 482.430,325.673 482.642,315.560 482.854,329.666 483.066,317.101 483.278,328.785 483.489,315.192 483.701,296.304 483.913,294.166 484.125,288.366 484.337,289.640 484.549,288.509 484.761,296.971 484.973,305.155 485.185,294.790 485.397,298.659 485.609,291.240 485.821,282.784 486.032,275.339 486.244,288.731 486.456,293.159 486.668,286.291 486.880,286.746 487.092,291.345 487.304,274.584 487.516,284.544 487.728,276.119 487.940,274.884 488.152,270.236 488.363,266.387 488.575,274.691 488.787,271.826 488.999,271.851 489.211,275.853 489.423,275.758 489.635,263.264 489.847,266.843 490.059,277.623 490.271,279.257 490.483,289.266 490.695,282.042 490.906,294.718 491.118,283.928 491.330,285.915 491.542,285.198 491.754,284.362 491.966,282.162 492.178,278.140 492.390,273.358 492.602,276.911 492.814,278.443 493.026,276.034 493.238,283.536 493.449,287.975 493.661,279.668 493.873,276.859 494.085,286.620 494.297,282.703 494.509,283.777 494.721,289.438 494.933,293.334 495.145,304.515 495.357,292.335 495.569,302.361 495.780,317.205 495.992,309.379 496.204,323.023 496.416,313.985 496.628,315.593 496.840,326.115 497.052,327.439 497.264,324.203 497.476,334.051 497.688,336.426 497.900,332.715 498.112,346.893 498.323,334.795 498.535,339.469 498.747,335.717 498.959,337.924 499.171,335.745 499.383,332.256 499.595,324.561 499.807,329.000 500.019,322.600 500.231,321.631 500.443,310.724 500.654,307.384 500.866,309.507 501.078,314.062 501.290,297.948 501.502,303.781 501.714,306.342 501.926,285.644 502.138,285.714 502.350,301.102 502.562,300.027 502.774,290.750 502.986,301.208 503.197,299.314 503.409,290.365 503.621,286.601 503.833,284.217 504.045,291.010 504.257,296.876 504.469,296.476 504.681,295.014 504.893,297.064 505.105,290.197 505.317,281.207 505.529,282.208 505.740,281.509 505.952,276.597 506.164,277.259 506.376,280.079 506.588,286.896 "/>
</g>
  <clipPath id = "ID000002">
    <rect x = "72.800" y = "31.500" width = "434.000" height = "342.300"/>
  </clipPath>
    </g>
    <g>
      <polyline fill = "none" stroke-linecap = "square" stroke-linejoin = "miter" stroke = "#262626" stroke-width = "0.500pt" stroke-dasharray = "none" stroke-opacity = "1.000" points = "145.133,373.800 145.133,369.460 "/>
      <polyline fill = "none" stroke-linecap = "square" stroke-linejoin = "miter" stroke = "#262626" stroke-width = "0.500pt" stroke-dasharray = "none" stroke-opacity = "1.000" points = "217.467,373.800 217.467,369.460 "/>
      <polyline fill = "none" stroke-linecap = "square" stroke-linejoin = "miter" stroke = "#262626" stroke-width = "0.500pt" stroke-dasharray = "none" stroke-opacity = "1.000" points = "289.800,373.800 289.800,369.460 "/>
      <polyline fill = "none" stroke-linecap = "square" stroke-linejoin = "miter" stroke = "#262626" stroke-width = "0.500pt" stroke-dasharray = "none" stroke-opacity = "1.000" points = "362.133,373.800 362.133,369.460 "/>
      <polyline fill = "none" stroke-linecap = "square" stroke-linejoin = "miter" stroke = "#262626" stroke-width = "0.500pt" stroke-dasharray = "none" stroke-opacity = "1.000" points = "434.467,373.800 434.467,369.460 "/>
      <polyline fill = "none" stroke-linecap = "square" stroke-linejoin = "miter" stroke = "#262626" stroke-width = "0.500pt" stroke-dasharray = "none" stroke-opacity = "1.000" points = "72.800,373.800 506.800,373.800 "/>
      <polyline fill = "none" stroke-linecap = "square" stroke-linejoin = "miter" stroke = "#262626" stroke-width = "0.500pt" stroke-dasharray = "none" stroke-opacity = "1.000" points = "145.133,31.500 145.133,35.840 "/>
      <polyline fill = "none" stroke-linecap = "square" stroke-linejoin = "miter" stroke = "#262626" stroke-width = "0.500pt" stroke-dasharray = "none" stroke-opacity = "1.000" points = "217.467,31.500 217.467,35.840 "/>
      <polyline fill = "none" stroke-linecap = "square" stroke-linejoin = "miter" stroke = "#262626" stroke-width = "0.500pt" stroke-dasharray = "none" stroke-opacity = "1.000" points = "289.800,31.500 289.800,35.840 "/>
      <polyline fill = "none" stroke-linecap = "square" stroke-linejoin = "miter" stroke = "#262626" stroke-width = "0.500pt" stroke-dasharray = "none" stroke-opacity = "1.000" points = "362.133,31.500 362.133,35.840 "/>
      <polyline fill = "none" stroke-linecap = "square" stroke-linejoin = "miter" stroke = "#262626" stroke-width = "0.500pt" stroke-dasharray = "none" stroke-opacity = "1.000" points = "434.467,31.500 434.467,35.840 "/>
      <polyline fill = "none" stroke-linecap = "square" stroke-linejoin = "miter" stroke = "#262626" stroke-width = "0.500pt" stroke-dasharray = "none" stroke-opacity = "1.000" points = "72.800,31.500 506.800,31.500 "/>
  <g transform = "translate(72.800,380.646)">
    <g transform = "rotate(-0.000)">
      <text x = "0.000" y = "0.9em" font-family = "Helvetica" text-anchor = "middle" dominant-baseline = "auto" font-size = "10.000pt" fill = "#262626"><tspan>-3000</tspan></text>
    </g>
  </g>
  <g transform = "translate(145.133,380.646)">
    <g transform = "rotate(-0.000)">
      <text x = "0.000" y = "0.9em" font-family = "Helvetica" text-anchor = "middle" dominant-baseline = "auto" font-size = "10.000pt" fill = "#262626"><tspan>-2000</tspan></text>
    </g>
  </g>
  <g transform = "translate(217.467,380.646)">
    <g transform = "rotate(-0.000)">
      <text x = "0.000" y = "0.9em" font-family = "Helvetica" text-anchor = "middle" dominant-baseline = "auto" font-size = "10.000pt" fill = "#262626"><tspan>-1000</tspan></text>
    </g>
  </g>
  <g transform = "translate(289.800,380.646)">
    <g transform = "rotate(-0.000)">
      <text x = "0.000" y = "0.9em" font-family = "Helvetica" text-anchor = "middle" dominant-baseline = "auto" font-size = "10.000pt" fill = "#262626"><tspan>0</tspan></text>
    </g>
  </g>
  <g transform = "translate(362.133,380.646)">
    <g transform = "rotate(-0.000)">
      <text x = "0.000" y = "0.9em" font-family = "Helvetica" text-anchor = "middle" dominant-baseline = "auto" font-size = "10.000pt" fill = "#262626"><tspan>1000</tspan></text>
    </g>
  </g>
  <g transform = "translate(434.467,380.646)">
    <g transform = "rotate(-0.000)">
      <text x = "0.000" y = "0.9em" font-family = "Helvetica" text-anchor = "middle" dominant-baseline = "auto" font-size = "10.000pt" fill = "#262626"><tspan>2000</tspan></text>
    </g>
  </g>
  <g transform = "translate(506.800,380.646)">
    <g transform = "rotate(-0.000)">
      <text x = "0.000" y = "0.9em" font-family = "Helvetica" text-anchor = "middle" dominant-baseline = "auto" font-size = "10.000pt" fill = "#262626"><tspan>3000</tspan></text>
    </g>
  </g>
      <polyline fill = "none" stroke-linecap = "square" stroke-linejoin = "miter" stroke = "#262626" stroke-width = "0.500pt" stroke-dasharray = "none" stroke-opacity = "1.000" points = "72.800,331.012 77.140,331.012 "/>
      <polyline fill = "none" stroke-linecap = "square" stroke-linejoin = "miter" stroke = "#262626" stroke-width = "0.500pt" stroke-dasharray = "none" stroke-opacity = "1.000" points = "72.800,288.225 77.140,288.225 "/>
      <polyline fill = "none" stroke-linecap = "square" stroke-linejoin = "miter" stroke = "#262626" stroke-width = "0.500pt" stroke-dasharray = "none" stroke-opacity = "1.000" points = "72.800,245.438 77.140,245.438 "/>
      <polyline fill = "none" stroke-linecap = "square" stroke-linejoin = "miter" stroke = "#262626" stroke-width = "0.500pt" stroke-dasharray = "none" stroke-opacity = "1.000" points = "72.800,202.650 77.140,202.650 "/>
      <polyline fill = "none" stroke-linecap = "square" stroke-linejoin = "miter" stroke = "#262626" stroke-width = "0.500pt" stroke-dasharray = "none" stroke-opacity = "1.000" points = "72.800,159.863 77.140,159.863 "/>
      <polyline fill = "none" stroke-linecap = "square" stroke-linejoin = "miter" stroke = "#262626" stroke-width = "0.500pt" stroke-dasharray = "none" stroke-opacity = "1.000" points = "72.800,117.075 77.140,117.075 "/>
      <polyline fill = "none" stroke-linecap = "square" stroke-linejoin = "miter" stroke = "#262626" stroke-width = "0.500pt" stroke-dasharray = "none" stroke-opacity = "1.000" points = "72.800,74.287 77.140,74.287 "/>
      <polyline fill = "none" stroke-linecap = "square" stroke-linejoin = "miter" stroke = "#262626" stroke-width = "0.500pt" stroke-dasharray = "none" stroke-opacity = "1.000" points = "72.800,373.800 72.800,31.500 "/>
      <polyline fill = "none" stroke-linecap = "square" stroke-linejoin = "miter" stroke = "#262626" stroke-width = "0.500pt" stroke-dasharray = "none" stroke-opacity = "1.000" points = "506.800,331.012 502.460,331.012 "/>
      <polyline fill = "none" stroke-linecap = "square" stroke-linejoin = "miter" stroke = "#262626" stroke-width = "0.500pt" stroke-dasharray = "none" stroke-opacity = "1.000" points = "506.800,288.225 502.460,288.225 "/>
      <polyline fill = "none" stroke-linecap = "square" stroke-linejoin = "miter" stroke = "#262626" stroke-width = "0.500pt" stroke-dasharray = "none" stroke-opacity = "1.000" points = "506.800,245.438 502.460,245.438 "/>
      <polyline fill = "none" stroke-linecap = "square" stroke-linejoin = "miter" stroke = "#262626" stroke-width = "0.500pt" stroke-dasharray = "none" stroke-opacity = "1.000" points = "506.800,202.650 502.460,202.650 "/>
      <polyline fill = "none" stroke-linecap = "square" stroke-linejoin = "miter" stroke = "#262626" stroke-width = "0.500pt" stroke-dasharray = "none" stroke-opacity = "1.000" points = "506.800,159.863 502.460,159.863 "/>
      <polyline fill = "none" stroke-linecap = "square" stroke-linejoin = "miter" stroke = "#262626" stroke-width = "0.500pt" stroke-dasharray = "none" stroke-opacity = "1.000" points = "506.800,117.075 502.460,117.075 "/>
      <polyline fill = "none" stroke-linecap = "square" stroke-linejoin = "miter" stroke = "#262626" stroke-width = "0.500pt" stroke-dasharray = "none" stroke-opacity = "1.000" points = "506.800,74.287 502.460,74.287 "/>
      <polyline fill = "none" stroke-linecap = "square" stroke-linejoin = "miter" stroke = "#262626" stroke-width = "0.500pt" stroke-dasharray = "none" stroke-opacity = "1.000" points = "506.800,373.800 506.800,31.500 "/>
  <g transform = "translate(64.120,373.800)">
    <g transform = "rotate(-0.000)">
      <text x = "0.000" y = "0.3em" font-family = "Helvetica" text-anchor = "end" dominant-baseline = "auto" font-size = "10.000pt" fill = "#262626"><tspan>-160</tspan></text>
    </g>
  </g>
  <g transform = "translate(64.120,331.012)">
    <g transform = "rotate(-0.000)">
      <text x = "0.000" y = "0.3em" font-family = "Helvetica" text-anchor = "end" dominant-baseline = "auto" font-size = "10.000pt" fill = "#262626"><tspan>-140</tspan></text>
    </g>
  </g>
  <g transform = "translate(64.120,288.225)">
    <g transform = "rotate(-0.000)">
      <text x = "0.000" y = "0.3em" font-family = "Helvetica" text-anchor = "end" dominant-baseline = "auto" font-size = "10.000pt" fill = "#262626"><tspan>-120</tspan></text>
    </g>
  </g>
  <g transform = "translate(64.120,245.438)">
    <g transform = "rotate(-0.000)">
      <text x = "0.000" y = "0.3em" font-family = "Helvetica" text-anchor = "end" dominant-baseline = "auto" font-size = "10.000pt" fill = "#262626"><tspan>-100</tspan></text>
    </g>
  </g>
  <g transform = "translate(64.120,202.650)">
    <g transform = "rotate(-0.000)">
      <text x = "0.000" y = "0.3em" font-family = "Helvetica" text-anchor = "end" dominant-baseline = "auto" font-size = "10.000pt" fill = "#262626"><tspan>-80</tspan></text>
    </g>
  </g>
  <g transform = "translate(64.120,159.863)">
    <g transform = "rotate(-0.000)">
      <text x = "0.000" y = "0.3em" font-family = "Helvetica" text-anchor = "end" dominant-baseline = "auto" font-size = "10.000pt" fill = "#262626"><tspan>-60</tspan></text>
    </g>
  </g>
  <g transform = "translate(64.120,117.075)">
    <g transform = "rotate(-0.000)">
      <text x = "0.000" y = "0.3em" font-family = "Helvetica" text-anchor = "end" dominant-baseline = "auto" font-size = "10.000pt" fill = "#262626"><tspan>-40</tspan></text>
    </g>
  </g>
  <g transform = "translate(64.120,74.287)">
    <g transform = "rotate(-0.000)">
      <text x = "0.000" y = "0.3em" font-family = "Helvetica" text-anchor = "end" dominant-baseline = "auto" font-size = "10.000pt" fill = "#262626"><tspan>-20</tspan></text>
    </g>
  </g>
  <g transform = "translate(64.120,31.500)">
    <g transform = "rotate(-0.000)">
      <text x = "0.000" y = "0.3em" font-family = "Helvetica" text-anchor = "end" dominant-baseline = "auto" font-size = "10.000pt" fill = "#262626"><tspan>0</tspan></text>
    </g>
  </g>
      <polyline fill = "none" stroke-linecap = "square" stroke-linejoin = "miter" stroke = "#262626" stroke-width = "0.500pt" stroke-dasharray = "none" stroke-opacity = "1.000" points = "72.800,373.800 72.800,373.800 "/>
    </g>
  </g>
  <g id  = "ID000008">
  <clipPath id = "ID000009">
    <rect x = "409.333" y = "41.667" width = "87.000" height = "34.500"/>
  </clipPath>
  <g id = "ID000010">
    <rect fill = "#ffffff" stroke-linecap = "square" stroke-linejoin = "miter" stroke = "#262626" stroke-width = "0.500pt" stroke-dasharray = "none" stroke-opacity = "1.000" x = "409.333" y = "41.667" width = "87.000" height = "34.500"/>
  </g>
<g id = "ID000011" clip-path = "url(#ID000009)" >
</g>
<g id = "ID000012" clip-path = "url(#ID000009)" >
      <polyline fill = "none" stroke-linecap = "square" stroke-linejoin = "round" stroke = "#0000ff" stroke-width = "0.500pt" stroke-dasharray = "none" stroke-opacity = "1.000" points = "413.333,66.667 453.333,66.667 "/>
</g>
<g id = "ID000013" clip-path = "url(#ID000009)" >
</g>
<g id = "ID000014" clip-path = "url(#ID000009)" >
      <polyline fill = "none" stroke-linecap = "square" stroke-linejoin = "round" stroke = "#ff0000" stroke-width = "0.500pt" stroke-dasharray = "none" stroke-opacity = "1.000" points = "413.333,51.167 453.333,51.167 "/>
</g>
<g id = "ID000015" >
  <g transform = "translate(456.333,66.667)">
    <g transform = "rotate(-0.000)">
      <text x = "0.000" y = "0.3em" font-family = "Helvetica" text-anchor = "start" dominant-baseline = "auto" font-size = "9.000pt" fill = "#000000"><tspan>QPSK</tspan></text>
    </g>
  </g>
</g>
<g id = "ID000016" >
  <g transform = "translate(456.333,51.167)">
    <g transform = "rotate(-0.000)">
      <text x = "0.000" y = "0.3em" font-family = "Helvetica" text-anchor = "start" dominant-baseline = "auto" font-size = "9.000pt" fill = "#000000"><tspan>4-ASK</tspan></text>
    </g>
  </g>
</g>
  </g>
  <g id  = "ID000017">
</g>
  </g>
</svg>
